<svg width="32" height="32" viewBox="0 0 32 32" fill="none" xmlns="http://www.w3.org/2000/svg">
<path d="M22.0002 11.9979H18.0013V1.99687C18.0013 1.0286 17.3094 0.20078 16.3578 0.0287262C15.4142 -0.131245 14.4663 0.388796 14.1264 1.29265L8.1278 17.2938C7.89612 17.9057 7.98372 18.5979 8.3558 19.138C8.73579 19.6787 9.34747 19.9986 10.0034 19.9986H14.0024V29.9997C14.0024 30.9679 14.6943 31.7957 15.6459 31.9678C15.7657 31.9879 15.886 32 16.0021 32C16.8217 32 17.5775 31.4921 17.8736 30.7039L23.8722 14.7027C24.1039 14.0908 24.0163 13.3987 23.6442 12.8585C23.2679 12.3179 22.6562 11.9979 22.0002 11.9979L22.0002 11.9979Z" fill="#FDBD46"/>
</svg>
