<svg width="256" height="256" fill="none" xmlns="http://www.w3.org/2000/svg"><path d="M175 128.498C175 154.181 154.181 175 128.498 175 102.817 175 82 154.181 82 128.498 82 102.817 102.819 82 128.498 82 154.181 82 175 102.819 175 128.498z" fill="#FDBD46"/><path d="M128.13 68.99c1.626 0 3.186-.605 4.335-1.683 1.151-1.077 1.797-2.54 1.797-4.065V51.748c0-2.054-1.169-3.95-3.065-4.978a6.487 6.487 0 00-6.132 0c-1.897 1.027-3.065 2.924-3.065 4.978v11.495c0 1.524.646 2.987 1.795 4.064 1.15 1.078 2.71 1.684 4.335 1.684zM173.855 88a5.86 5.86 0 004.141-1.716l8.287-8.28a5.86 5.86 0 10-8.287-8.287l-8.282 8.286a5.858 5.858 0 004.14 9.997h.001zM203.818 122h-11.88c-2.121 0-4.082 1.168-5.143 3.065a6.31 6.31 0 000 6.132c1.061 1.896 3.022 3.065 5.143 3.065h11.88c2.121 0 4.082-1.169 5.143-3.065a6.304 6.304 0 000-6.132c-1.061-1.897-3.022-3.065-5.143-3.065zM178.033 169.782a5.835 5.835 0 10-8.251 8.251l8.251 8.257a5.838 5.838 0 108.257-8.257l-8.257-8.251zM127.999 186a6.002 6.002 0 00-5.999 5.999V204a6 6 0 1012 0v-12.001c0-1.59-.632-3.117-1.758-4.241a5.995 5.995 0 00-4.243-1.758zM77.93 169.77l-8.225 8.223a5.82 5.82 0 000 8.229 5.815 5.815 0 008.226 0l8.22-8.223a5.817 5.817 0 00-4.09-9.999 5.815 5.815 0 00-4.13 1.776v-.006zM63.243 122H51.748c-2.054 0-3.95 1.168-4.978 3.065a6.487 6.487 0 000 6.132c1.027 1.896 2.924 3.065 4.978 3.065h11.495c2.054 0 3.952-1.169 4.977-3.065a6.487 6.487 0 000-6.132c-1.025-1.897-2.923-3.065-4.977-3.065zM78.002 86.281a5.857 5.857 0 008.28-8.28l-8.28-8.285a5.857 5.857 0 00-9.802 2.627 5.858 5.858 0 001.516 5.66l8.287 8.278z" fill="#FCBE46"/></svg>