<svg width="256" height="256" fill="none" xmlns="http://www.w3.org/2000/svg"><path fill-rule="evenodd" clip-rule="evenodd" d="M168.353 67.104c1.42 0 2.783-.53 3.786-1.472 1.005-.942 1.569-2.221 1.569-3.554V52.026c0-1.796-1.02-3.455-2.677-4.352a5.656 5.656 0 00-5.354 0c-1.657.898-2.677 2.556-2.677 4.352v10.052c0 1.333.564 2.612 1.567 3.554 1.005.943 2.367 1.472 3.786 1.472zm39.741 16.32a5.095 5.095 0 003.603-1.495l7.21-7.214a5.109 5.109 0 00-2.285-8.54 5.094 5.094 0 00-4.926 1.32l-7.205 7.22a5.108 5.108 0 000 7.213 5.095 5.095 0 003.602 1.495h.001zM224.186 113h10.374c1.852 0 3.565 1.022 4.492 2.68a5.522 5.522 0 010 5.362c-.927 1.659-2.64 2.68-4.492 2.68h-10.374c-1.853 0-3.565-1.021-4.492-2.68a5.527 5.527 0 010-5.362c.927-1.658 2.639-2.68 4.492-2.68zm-12.457 42.553a5.075 5.075 0 00-7.242-.064 5.092 5.092 0 00.063 7.252l7.179 7.193a5.073 5.073 0 004.907 1.316 5.09 5.09 0 002.276-8.51l-7.183-7.187zm-80.578-72.927c-1.679.46-3.476 0-4.728-1.21l-6.978-6.982a4.946 4.946 0 01-1.277-4.772 4.935 4.935 0 013.489-3.493 4.928 4.928 0 014.766 1.278l6.972 6.987a4.945 4.945 0 011.209 4.734 4.937 4.937 0 01-3.453 3.458z" fill="#FCBE46"/><g filter="url(#filter0_i_3988_10353)"><path fill-rule="evenodd" clip-rule="evenodd" d="M192.992 151.064c9.531-7.483 15.655-19.12 15.655-32.188 0-22.574-18.278-40.876-40.825-40.876-10.314 0-19.734 3.83-26.92 10.147 12.511 2.371 24.119 8.352 33.261 17.306 12.061 11.814 18.838 27.838 18.838 44.546 0 .355-.003.71-.009 1.065z" fill="url(#paint0_linear_3988_10353)"/></g><path d="M126.018 95a57.186 57.186 0 00-31.158 9.266 57.24 57.24 0 00-21.082 24.753 41.81 41.81 0 00-15.971-3.2 41.796 41.796 0 00-29.562 12.251 41.838 41.838 0 000 59.153 41.796 41.796 0 0029.562 12.251h68.214a57.205 57.205 0 0040.455-16.765 57.255 57.255 0 000-80.944A57.202 57.202 0 00126.021 95h-.003z" fill="#EFEFEF"/><defs><linearGradient id="paint0_linear_3988_10353" x1="168.192" y1="78" x2="168.192" y2="159.755" gradientUnits="userSpaceOnUse"><stop stop-color="#FBD645"/><stop offset="1" stop-color="#FFA248"/></linearGradient><filter id="filter0_i_3988_10353" x="140.902" y="78" width="72.745" height="79.064" filterUnits="userSpaceOnUse" color-interpolation-filters="sRGB"><feFlood flood-opacity="0" result="BackgroundImageFix"/><feBlend in="SourceGraphic" in2="BackgroundImageFix" result="shape"/><feColorMatrix in="SourceAlpha" values="0 0 0 0 0 0 0 0 0 0 0 0 0 0 0 0 0 0 127 0" result="hardAlpha"/><feOffset dx="5" dy="6"/><feGaussianBlur stdDeviation="7.5"/><feComposite in2="hardAlpha" operator="arithmetic" k2="-1" k3="1"/><feColorMatrix values="0 0 0 0 1 0 0 0 0 1 0 0 0 0 1 0 0 0 0.5 0"/><feBlend in2="shape" result="effect1_innerShadow_3988_10353"/></filter></defs></svg>