<svg width="256" height="256" fill="none" xmlns="http://www.w3.org/2000/svg"><path d="M138.068 78.065c-21.056-.75-41.777 11.913-52.699 31.022l-.77.702c-16.248-6.328-34.905-5.159-47.393 6.767S20.66 146.46 26.87 162.376c6.208 15.915 21.507 26.755 38.984 27.624h69.955v-.098c26.836-.866 49.304-20.729 53.5-47.377 4.216-26.781-11.22-52.763-36.701-61.772A48.639 48.639 0 00138.092 78l-.024.065z" fill="#EFEFEF"/><path opacity=".5" fill-rule="evenodd" clip-rule="evenodd" d="M127.371 46.81c10.921-18.94 31.642-31.49 52.699-30.746l.023-.064a49.017 49.017 0 0114.516 2.728c25.481 8.929 40.917 34.679 36.701 61.221-3.018 19-15.492 34.518-32.246 42.051-3.941-22.999-20.018-42.873-43.12-50.994h-.001a58.93 58.93 0 00-17.494-3.3l-7.441.254c-20.03 1.726-38.616 13.146-50.407 29.587a64.1 64.1 0 00-13.08-1.943c-4.117-14.71.249-30.567 11.687-41.392 12.488-11.82 31.145-12.978 47.393-6.707l.77-.695z" fill="#fff"/><path fill-rule="evenodd" clip-rule="evenodd" d="M43.012 206.003a6.774 6.774 0 00-4.675 2.041l-20.243 20.255-.004.004a6.788 6.788 0 00-.097 9.705 6.805 6.805 0 009.716-.097l20.244-20.254a6.794 6.794 0 00-4.941-11.654zM93.012 206.003a6.774 6.774 0 00-4.675 2.041l-20.243 20.255-.004.004a6.788 6.788 0 00-.097 9.705 6.805 6.805 0 009.716-.097l20.244-20.254a6.794 6.794 0 00-4.941-11.654zM143.012 206.003a6.772 6.772 0 00-4.675 2.041l-20.243 20.255-.004.004a6.788 6.788 0 00-.097 9.705 6.805 6.805 0 009.716-.097l20.244-20.254a6.796 6.796 0 00-4.941-11.654zM193.012 206.003a6.772 6.772 0 00-4.675 2.041l-20.243 20.255-.004.004a6.788 6.788 0 00-.097 9.705 6.805 6.805 0 009.716-.097l20.244-20.254a6.796 6.796 0 00-4.941-11.654z" fill="#B7B8E7"/></svg>