<svg width="256" height="256" fill="none" xmlns="http://www.w3.org/2000/svg"><path fill-rule="evenodd" clip-rule="evenodd" d="M168.378 36.104c1.421 0 2.783-.53 3.787-1.472s1.568-2.221 1.568-3.554V21.026c0-1.796-1.02-3.454-2.676-4.352a5.658 5.658 0 00-5.355 0c-1.657.898-2.677 2.556-2.677 4.352v10.052c0 1.333.564 2.612 1.567 3.554 1.005.943 2.368 1.472 3.786 1.472zm39.897 16.757a5.093 5.093 0 003.603-1.495l7.21-7.214a5.107 5.107 0 00-2.285-8.54 5.093 5.093 0 00-4.925 1.32l-7.205 7.22a5.105 5.105 0 003.602 8.709zm16.153 29.487h10.374c1.852 0 3.565 1.021 4.492 2.68a5.522 5.522 0 010 5.362c-.927 1.658-2.64 2.68-4.492 2.68h-10.374c-1.853 0-3.565-1.022-4.492-2.68a5.527 5.527 0 010-5.362c.927-1.659 2.639-2.68 4.492-2.68zm-12.518 41.755a5.078 5.078 0 00-3.607-1.552 5.08 5.08 0 00-5.121 5.128 5.085 5.085 0 001.55 3.612l7.178 7.193a5.072 5.072 0 004.907 1.317 5.08 5.08 0 003.591-3.596 5.087 5.087 0 00-1.314-4.914l-7.184-7.188zm-80.902-72.735c-1.678.46-3.476 0-4.728-1.21l-6.977-6.982a4.943 4.943 0 012.211-8.265 4.928 4.928 0 014.766 1.279l6.972 6.986a4.943 4.943 0 011.209 4.735 4.933 4.933 0 01-3.453 3.457z" fill="#FCBE46"/><path fill-rule="evenodd" clip-rule="evenodd" d="M189.822 122.491c11.634-7.203 19.385-20.092 19.385-34.795 0-22.574-18.277-40.876-40.825-40.876-11.141 0-21.24 4.47-28.606 11.715 12.094 2.25 23.32 8.03 32.147 16.715 11.561 11.377 18.057 26.807 18.057 42.896 0 1.455-.053 2.904-.158 4.345z" fill="#FDBD46"/><path d="M126.018 64.031a57.183 57.183 0 00-31.158 9.267A57.234 57.234 0 0073.778 98.05a41.808 41.808 0 00-15.971-3.2 41.795 41.795 0 00-29.562 12.25 41.839 41.839 0 000 59.153 41.792 41.792 0 0029.562 12.251h68.214a57.2 57.2 0 0040.454-16.764 57.254 57.254 0 000-80.945 57.201 57.201 0 00-40.454-16.765h-.003z" fill="#EFEFEF"/><path fill-rule="evenodd" clip-rule="evenodd" d="M154.067 200.002a4.783 4.783 0 00-3.3 1.441l-14.289 14.297-.003.003a4.795 4.795 0 00-.068 6.851 4.806 4.806 0 006.858-.068l14.29-14.298a4.794 4.794 0 001.064-5.303 4.8 4.8 0 00-4.552-2.923zM35.067 200.002a4.782 4.782 0 00-3.3 1.441l-14.29 14.297-.002.003a4.793 4.793 0 00-.068 6.851 4.807 4.807 0 006.858-.068l14.29-14.298a4.794 4.794 0 001.064-5.303 4.8 4.8 0 00-4.552-2.923zM188.067 200.002a4.783 4.783 0 00-3.3 1.441l-14.289 14.297-.003.003a4.795 4.795 0 00-.068 6.851 4.806 4.806 0 006.858-.068l14.29-14.298a4.794 4.794 0 001.064-5.303 4.8 4.8 0 00-4.552-2.923zM69.067 200.002a4.782 4.782 0 00-3.3 1.441l-14.29 14.297-.002.003a4.793 4.793 0 00-.068 6.851 4.807 4.807 0 006.858-.068l14.29-14.298a4.794 4.794 0 001.064-5.303 4.8 4.8 0 00-4.552-2.923z" fill="#B7B8E7"/><path fill-rule="evenodd" clip-rule="evenodd" d="M122.587 184.001l-14.47 20.695H125L87.617 240l13.266-28H84l16.883-28 21.704.001z" fill="#FDBD46"/></svg>