<svg width="256" height="256" fill="none" xmlns="http://www.w3.org/2000/svg"><path d="M196.59 16c-21.044 1.471-37.944 16.679-42.063 36.35 23.162 8.69 40.395 29.63 43.821 54.928.5 0 1.006.091 1.511.091 16.584 0 31.892-8.783 40.143-22.985-1.024.092-2.05.118-3.075.128-25.587 0-46.327-20.477-46.327-45.736a45.15 45.15 0 016.187-22.77L196.59 16z" fill="#B7B8E7"/><path d="M130.402 57.262a59.519 59.519 0 00-32.4 9.623A59.456 59.456 0 0076.08 92.59a43.524 43.524 0 00-16.607-3.324 43.488 43.488 0 00-30.74 12.723A43.418 43.418 0 0016 132.704a43.422 43.422 0 0012.733 30.714 43.49 43.49 0 0030.74 12.722h70.932a59.522 59.522 0 0042.067-17.41 59.42 59.42 0 0017.424-42.03 59.417 59.417 0 00-17.424-42.029 59.523 59.523 0 00-42.067-17.41h-.003z" fill="#EFEFEF"/><path fill-rule="evenodd" clip-rule="evenodd" d="M154.067 200.002a4.783 4.783 0 00-3.3 1.441l-14.289 14.297-.003.003a4.795 4.795 0 00-.068 6.851 4.806 4.806 0 006.858-.068l14.29-14.298a4.794 4.794 0 001.064-5.303 4.8 4.8 0 00-4.552-2.923zM35.067 200.002a4.782 4.782 0 00-3.3 1.441l-14.29 14.297-.002.003a4.793 4.793 0 00-.068 6.851 4.807 4.807 0 006.858-.068l14.29-14.298a4.794 4.794 0 001.064-5.303 4.8 4.8 0 00-4.552-2.923zM188.067 200.002a4.783 4.783 0 00-3.3 1.441l-14.289 14.297-.003.003a4.795 4.795 0 00-.068 6.851 4.806 4.806 0 006.858-.068l14.29-14.298a4.794 4.794 0 001.064-5.303 4.8 4.8 0 00-4.552-2.923zM69.067 200.002a4.782 4.782 0 00-3.3 1.441l-14.29 14.297-.002.003a4.793 4.793 0 00-.068 6.851 4.807 4.807 0 006.858-.068l14.29-14.298a4.794 4.794 0 001.064-5.303 4.8 4.8 0 00-4.552-2.923z" fill="#B7B8E7"/><path fill-rule="evenodd" clip-rule="evenodd" d="M122.587 184.001l-14.47 20.695H125L87.617 240l13.266-28H84l16.883-28 21.704.001z" fill="#FDBD46"/></svg>