<svg width="256" height="256" fill="none" xmlns="http://www.w3.org/2000/svg"><path fill-rule="evenodd" clip-rule="evenodd" d="M97.943 200.001a4 4 0 00-2.811 1.214 4.006 4.006 0 00-1.126 2.849v9.055l-7.97-4.555a4.002 4.002 0 00-1.907-.559v-.003a4 4 0 00-2.064 7.499l7.872 4.503-7.868 4.497h-.002a4.001 4.001 0 00-1.494 5.461 4.004 4.004 0 005.463 1.493l7.97-4.559v9.049a3.997 3.997 0 004 4.055 4.002 4.002 0 004-4.055v-9.036l7.954 4.55h.002c.92.526 2.014.665 3.039.384a3.998 3.998 0 002.806-4.916 3.985 3.985 0 00-1.877-2.422l-7.876-4.501 7.877-4.506a4 4 0 001.96-4.427 4.004 4.004 0 00-3.74-3.075v.005a3.988 3.988 0 00-2.188.559l-7.957 4.547v-9.043a4.007 4.007 0 00-1.17-2.894 4.013 4.013 0 00-2.893-1.17v.001zM153.941 184.001a3.994 3.994 0 00-2.809 1.216 3.99 3.99 0 00-1.128 2.847v9.054l-7.969-4.554a4.01 4.01 0 00-1.906-.56v-.002a4.003 4.003 0 00-2.064 7.501l7.872 4.503-7.868 4.496h-.002a4.007 4.007 0 00-1.516 5.476 4.012 4.012 0 005.486 1.478l7.967-4.557v9.044a4 4 0 108 0v-9.035l7.954 4.55h.002a4 4 0 005.484-1.478 4 4 0 00-1.516-5.476l-7.872-4.499 7.874-4.504a4.002 4.002 0 00-1.78-7.501v.003a3.988 3.988 0 00-2.188.559l-7.958 4.548v-9.046a4 4 0 00-4.063-4.064v.001zM41.946 184.001a3.995 3.995 0 00-2.81 1.216 3.99 3.99 0 00-1.128 2.847v9.062l-7.971-4.554a4.016 4.016 0 00-1.907-.56v-.002a4 4 0 00-2.064 7.501l7.87 4.501-7.872 4.498h-.002a4.004 4.004 0 00-1.517 5.475 4.005 4.005 0 005.488 1.479l7.975-4.561v9.04a4.005 4.005 0 004 4.057 4.005 4.005 0 004.002-4.057v-9.027l7.955 4.55h.002a4.001 4.001 0 005.485-1.479c.53-.927.668-2.025.382-3.053a3.995 3.995 0 00-1.899-2.422l-7.876-4.501 7.873-4.502a4 4 0 00-1.78-7.501v.002a3.999 3.999 0 00-2.19.56l-7.953 4.544v-9.05A3.998 3.998 0 0041.947 184v.001z" fill="#B7B8E7"/><path fill-rule="evenodd" clip-rule="evenodd" d="M168.378 36.104c1.421 0 2.783-.53 3.787-1.472s1.568-2.221 1.568-3.554V21.026c0-1.796-1.02-3.454-2.676-4.352a5.658 5.658 0 00-5.355 0c-1.657.898-2.677 2.556-2.677 4.352v10.052c0 1.333.564 2.612 1.567 3.554 1.005.943 2.368 1.472 3.786 1.472zm39.897 16.757a5.093 5.093 0 003.603-1.495l7.21-7.214a5.107 5.107 0 00-2.285-8.54 5.093 5.093 0 00-4.925 1.32l-7.205 7.22a5.105 5.105 0 003.602 8.709zm16.153 29.487h10.374c1.852 0 3.565 1.021 4.492 2.68a5.522 5.522 0 010 5.362c-.927 1.658-2.64 2.68-4.492 2.68h-10.374c-1.853 0-3.565-1.022-4.492-2.68a5.527 5.527 0 010-5.362c.927-1.659 2.639-2.68 4.492-2.68zm-12.518 41.755a5.078 5.078 0 00-3.607-1.552 5.08 5.08 0 00-5.121 5.128 5.085 5.085 0 001.55 3.612l7.178 7.193a5.072 5.072 0 004.907 1.317 5.08 5.08 0 003.591-3.596 5.087 5.087 0 00-1.314-4.914l-7.184-7.188zm-80.902-72.735c-1.678.46-3.476 0-4.728-1.21l-6.977-6.982a4.943 4.943 0 012.211-8.265 4.928 4.928 0 014.766 1.279l6.972 6.986a4.943 4.943 0 011.209 4.735 4.933 4.933 0 01-3.453 3.457z" fill="#FCBE46"/><path fill-rule="evenodd" clip-rule="evenodd" d="M189.822 122.491c11.634-7.203 19.385-20.092 19.385-34.795 0-22.574-18.277-40.876-40.825-40.876-11.141 0-21.24 4.47-28.606 11.715 12.094 2.25 23.32 8.03 32.147 16.715 11.561 11.377 18.057 26.807 18.057 42.896 0 1.455-.053 2.904-.158 4.345z" fill="#FDBD46"/><path d="M126.006 64.031a57.182 57.182 0 00-31.158 9.267A57.233 57.233 0 0073.766 98.05a41.809 41.809 0 00-15.97-3.2 41.795 41.795 0 00-29.563 12.25 41.839 41.839 0 000 59.153 41.792 41.792 0 0029.562 12.251h68.214a57.204 57.204 0 0040.455-16.764 57.259 57.259 0 000-80.945 57.206 57.206 0 00-40.455-16.765h-.003z" fill="#EFEFEF"/></svg>