<svg width="256" height="256" fill="none" xmlns="http://www.w3.org/2000/svg"><path fill-rule="evenodd" clip-rule="evenodd" d="M168.379 36.104c1.42 0 2.782-.53 3.786-1.472 1.005-.942 1.568-2.221 1.568-3.554V21.026c0-1.796-1.02-3.454-2.676-4.352a5.658 5.658 0 00-5.355 0c-1.656.898-2.677 2.556-2.677 4.352v10.052c0 1.333.564 2.612 1.568 3.554 1.004.943 2.367 1.472 3.786 1.472zm39.896 16.757a5.092 5.092 0 003.603-1.495l7.211-7.214a5.109 5.109 0 00-2.286-8.54 5.093 5.093 0 00-4.925 1.32l-7.205 7.22a5.105 5.105 0 000 7.214 5.095 5.095 0 003.602 1.495zm16.153 29.487h10.374c1.852 0 3.565 1.021 4.492 2.68a5.517 5.517 0 010 5.362c-.927 1.658-2.639 2.68-4.492 2.68h-10.374c-1.852 0-3.565-1.022-4.492-2.68a5.527 5.527 0 010-5.362c.927-1.659 2.64-2.68 4.492-2.68zm-12.517 41.755a5.078 5.078 0 00-3.608-1.552 5.08 5.08 0 00-5.121 5.128 5.09 5.09 0 001.55 3.612l7.178 7.193a5.072 5.072 0 004.907 1.317 5.09 5.09 0 002.277-8.51l-7.183-7.188zm-80.902-72.735c-1.679.46-3.476 0-4.728-1.21l-6.978-6.982a4.943 4.943 0 012.211-8.265 4.927 4.927 0 014.766 1.279l6.972 6.986a4.943 4.943 0 011.209 4.735 4.934 4.934 0 01-3.452 3.457z" fill="#FCBE46"/><path fill-rule="evenodd" clip-rule="evenodd" d="M189.822 122.491c11.634-7.203 19.385-20.092 19.385-34.795 0-22.574-18.277-40.876-40.825-40.876-11.141 0-21.24 4.47-28.606 11.715 12.094 2.25 23.32 8.03 32.147 16.715 11.561 11.377 18.057 26.807 18.057 42.896 0 1.455-.053 2.904-.158 4.345z" fill="#FDBD46"/><path d="M126.006 64.031a57.182 57.182 0 00-31.158 9.267A57.233 57.233 0 0073.766 98.05a41.809 41.809 0 00-15.97-3.2 41.795 41.795 0 00-29.563 12.25 41.839 41.839 0 000 59.153 41.792 41.792 0 0029.562 12.251h68.214a57.204 57.204 0 0040.455-16.764 57.259 57.259 0 000-80.945 57.206 57.206 0 00-40.455-16.765h-.003z" fill="#EFEFEF"/><path fill-rule="evenodd" clip-rule="evenodd" d="M82.557 193.781a13.815 13.815 0 00-9.005 3.353l-5.12 4.386c-1.627 1.394-5.119 1.394-6.745 0-2.377-2.037-7.243-6.212-7.243-6.212a4.314 4.314 0 00-3.232-1.102 4.357 4.357 0 00-3.026 1.6 4.574 4.574 0 00-.995 3.338 4.516 4.516 0 001.638 3.059s4.87 4.177 7.242 6.209a13.775 13.775 0 0017.994 0l5.12-4.386c1.627-1.394 5.121-1.394 6.745 0l5.12 4.386a13.775 13.775 0 0017.995 0l5.12-4.386c1.627-1.394 5.12-1.394 6.747 0l5.118 4.386a13.774 13.774 0 0017.994 0l5.121-4.386c1.626-1.394 5.12-1.394 6.744 0l5.121 4.386a13.774 13.774 0 0017.994 0l5.12-4.386c1.627-1.394 5.121-1.394 6.745 0l6.883 5.894-.004.002a4.318 4.318 0 006.182-.562 4.566 4.566 0 001.005-3.281 4.533 4.533 0 00-1.553-3.051s-4.577-3.905-6.899-5.894a13.777 13.777 0 00-17.994 0l-5.121 4.386c-1.626 1.394-5.118 1.394-6.745 0l-5.12-4.386a13.777 13.777 0 00-17.994 0l-5.12 4.386c-1.627 1.394-5.121 1.394-6.745 0l-5.12-4.386a13.777 13.777 0 00-17.994 0l-5.118 4.386c-1.627 1.394-5.12 1.394-6.748 0l-5.12-4.386c-2.6-2.229-5.791-3.353-8.989-3.353h.002zM82.557 222.023a13.815 13.815 0 00-9.005 3.353l-5.12 4.386c-1.627 1.394-5.119 1.394-6.745 0-2.377-2.037-7.243-6.211-7.243-6.211a4.315 4.315 0 00-3.232-1.103 4.35 4.35 0 00-3.026 1.6 4.57 4.57 0 00-.995 3.336 4.518 4.518 0 001.638 3.061s4.87 4.177 7.242 6.209a13.772 13.772 0 0017.994 0l5.12-4.386c1.627-1.394 5.121-1.394 6.745 0l5.12 4.386a13.772 13.772 0 0017.995 0l5.12-4.386c1.627-1.394 5.12-1.394 6.747 0l5.118 4.386a13.772 13.772 0 0017.994 0l5.121-4.386c1.626-1.394 5.12-1.394 6.744 0l5.121 4.386a13.772 13.772 0 0017.994 0l5.12-4.386c1.627-1.394 5.121-1.394 6.745 0l6.883 5.894-.004.002a4.318 4.318 0 006.182-.562 4.575 4.575 0 001.005-3.283 4.524 4.524 0 00-1.553-3.049s-4.577-3.905-6.899-5.894a13.78 13.78 0 00-17.994 0l-5.121 4.386c-1.626 1.394-5.118 1.394-6.745 0l-5.12-4.386a13.78 13.78 0 00-17.994 0l-5.12 4.386c-1.627 1.394-5.121 1.394-6.745 0l-5.12-4.386a13.78 13.78 0 00-17.994 0l-5.118 4.386c-1.627 1.394-5.12 1.394-6.748 0l-5.12-4.386c-2.6-2.229-5.791-3.353-8.989-3.353h.002z" fill="#B7B8E7"/></svg>