<svg width="256" height="256" fill="none" xmlns="http://www.w3.org/2000/svg"><path d="M196.59 16c-21.044 1.471-37.944 16.679-42.063 36.35 23.162 8.69 40.395 29.63 43.821 54.928.5 0 1.006.091 1.511.091 16.584 0 31.892-8.783 40.143-22.985-1.024.092-2.05.118-3.075.128-25.587 0-46.327-20.477-46.327-45.736a45.15 45.15 0 016.187-22.77L196.59 16z" fill="#B7B8E7"/><path d="M130.402 57.262a59.519 59.519 0 00-32.4 9.623A59.456 59.456 0 0076.08 92.59a43.524 43.524 0 00-16.607-3.324 43.488 43.488 0 00-30.74 12.723A43.418 43.418 0 0016 132.704a43.422 43.422 0 0012.733 30.714 43.49 43.49 0 0030.74 12.722h70.932a59.522 59.522 0 0042.067-17.41 59.42 59.42 0 0017.424-42.03 59.417 59.417 0 00-17.424-42.029 59.523 59.523 0 00-42.067-17.41h-.003z" fill="#EFEFEF"/><path fill-rule="evenodd" clip-rule="evenodd" d="M85.22 192.004c-3.324 0-6.658 1.164-9.363 3.481l-5.324 4.555c-1.692 1.448-5.322 1.448-7.014 0l-7.53-6.45a4.488 4.488 0 00-3.362-1.145 4.53 4.53 0 00-3.147 1.662 4.744 4.744 0 00-1.034 3.466 4.682 4.682 0 001.703 3.176s5.065 4.339 7.53 6.448a14.334 14.334 0 0018.712 0l5.324-4.555c1.692-1.447 5.325-1.447 7.014 0l5.324 4.555a14.334 14.334 0 0018.711 0l5.325-4.555c1.691-1.447 5.324-1.447 7.016 0l5.322 4.555a14.334 14.334 0 0018.711 0l5.324-4.555c1.692-1.447 5.325-1.447 7.014 0l5.324 4.555a14.334 14.334 0 0018.711 0l5.325-4.555c1.691-1.447 5.324-1.447 7.013 0l7.158 6.121-.005.003a4.495 4.495 0 006.429-.584 4.736 4.736 0 001.044-3.407 4.708 4.708 0 00-1.614-3.169s-4.759-4.055-7.175-6.121a14.344 14.344 0 00-18.711 0l-5.324 4.555c-1.691 1.448-5.322 1.448-7.014 0l-5.324-4.555a14.344 14.344 0 00-18.711 0l-5.324 4.555c-1.692 1.448-5.325 1.448-7.014 0l-5.324-4.555a14.344 14.344 0 00-18.711 0l-5.322 4.555c-1.692 1.448-5.325 1.448-7.016 0l-5.325-4.555c-2.704-2.314-6.022-3.481-9.347-3.481h.002zM85.22 221.332a14.38 14.38 0 00-9.363 3.481l-5.324 4.555c-1.692 1.448-5.322 1.448-7.014 0l-7.53-6.45a4.488 4.488 0 00-3.362-1.145 4.522 4.522 0 00-3.147 1.662 4.738 4.738 0 00-1.034 3.464 4.691 4.691 0 001.703 3.179s5.065 4.338 7.53 6.447a14.334 14.334 0 0018.712 0l5.324-4.554c1.692-1.448 5.325-1.448 7.014 0l5.324 4.554a14.334 14.334 0 0018.711 0l5.325-4.554c1.691-1.448 5.324-1.448 7.016 0l5.322 4.554a14.334 14.334 0 0018.711 0l5.324-4.554c1.692-1.448 5.325-1.448 7.014 0l5.324 4.554a14.334 14.334 0 0018.711 0l5.325-4.554c1.691-1.448 5.324-1.448 7.013 0l7.158 6.12-.005.003a4.495 4.495 0 006.429-.584 4.745 4.745 0 001.044-3.41 4.699 4.699 0 00-1.614-3.166s-4.759-4.055-7.175-6.121a14.344 14.344 0 00-18.711 0l-5.324 4.555c-1.691 1.448-5.322 1.448-7.014 0l-5.324-4.555a14.344 14.344 0 00-18.711 0l-5.324 4.555c-1.692 1.448-5.325 1.448-7.014 0l-5.324-4.555a14.344 14.344 0 00-18.711 0l-5.322 4.555c-1.692 1.448-5.325 1.448-7.016 0l-5.325-4.555c-2.704-2.314-6.022-3.481-9.347-3.481h.002z" fill="#B7B8E7"/></svg>