<svg width="256" height="256" fill="none" xmlns="http://www.w3.org/2000/svg"><path d="M196.829 48C175.902 49.465 159.095 64.612 155 84.204c23.033 8.653 40.171 29.509 43.577 54.705.497 0 1.001.091 1.503.091 16.492 0 31.715-8.748 39.92-22.892a38.089 38.089 0 01-3.058.127c-25.444 0-46.069-20.394-46.069-45.551a45.025 45.025 0 016.152-22.679l-.196-.005z" fill="#B7B8E7"/><path d="M130.47 89a59.536 59.536 0 00-32.418 9.633 59.514 59.514 0 00-21.936 25.731 43.551 43.551 0 00-16.617-3.327 43.504 43.504 0 00-30.758 12.736 43.473 43.473 0 000 61.492A43.507 43.507 0 0059.499 208h70.974a59.547 59.547 0 0042.092-17.427A59.495 59.495 0 00190 148.499a59.492 59.492 0 00-17.435-42.072A59.547 59.547 0 00130.473 89h-.003z" fill="#EFEFEF"/></svg>