<svg width="256" height="256" fill="none" xmlns="http://www.w3.org/2000/svg"><path d="M138.842 101.059c-22.676-.811-44.99 12.871-56.752 33.518l-.83.758c-17.497-6.837-37.59-5.573-51.038 7.312-13.449 12.885-17.82 32.31-11.131 49.506 6.685 17.196 23.162 28.909 41.983 29.847h75.335v-.105c28.901-.936 53.097-22.397 57.616-51.189 4.54-28.936-12.084-57.009-39.524-66.743a52.244 52.244 0 00-15.633-2.974l-.026.07z" fill="#EFEFEF"/><path opacity=".5" fill-rule="evenodd" clip-rule="evenodd" d="M127.321 67.588c11.761-20.647 34.076-34.329 56.752-33.518l.025-.07a52.223 52.223 0 0115.633 2.974c27.441 9.734 44.064 37.807 39.524 66.743-3.247 20.69-16.655 37.594-34.668 45.817-4.141-25.141-21.5-46.898-46.496-55.765h-.001a62.958 62.958 0 00-18.84-3.585l-8.013.276c-21.57 1.876-41.586 14.284-54.284 32.149a68.443 68.443 0 00-14.164-2.113c-4.3-15.955.42-33.107 12.663-44.838 13.45-12.885 33.541-14.149 51.039-7.312l.83-.758z" fill="#fff"/></svg>