<svg width="256" height="256" fill="none" xmlns="http://www.w3.org/2000/svg"><path d="M196.59 16c-21.044 1.471-37.944 16.679-42.063 36.35 23.162 8.69 40.395 29.63 43.821 54.928.5 0 1.006.091 1.511.091 16.584 0 31.892-8.783 40.143-22.985-1.024.092-2.05.118-3.075.128-25.587 0-46.327-20.477-46.327-45.736a45.15 45.15 0 016.187-22.77L196.59 16z" fill="#B7B8E7"/><path d="M130.402 57.262a59.519 59.519 0 00-32.4 9.623A59.456 59.456 0 0076.08 92.59a43.524 43.524 0 00-16.607-3.324 43.488 43.488 0 00-30.74 12.723A43.418 43.418 0 0016 132.704a43.422 43.422 0 0012.733 30.714 43.49 43.49 0 0030.74 12.722h70.932a59.522 59.522 0 0042.067-17.41 59.42 59.42 0 0017.424-42.03 59.417 59.417 0 00-17.424-42.029 59.523 59.523 0 00-42.067-17.41h-.003z" fill="#EFEFEF"/><path fill-rule="evenodd" clip-rule="evenodd" d="M43.012 206.003a6.774 6.774 0 00-4.675 2.041l-20.243 20.255-.004.004a6.788 6.788 0 00-.097 9.705 6.805 6.805 0 009.716-.097l20.244-20.254a6.794 6.794 0 00-4.941-11.654zM93.012 206.003a6.774 6.774 0 00-4.675 2.041l-20.243 20.255-.004.004a6.788 6.788 0 00-.097 9.705 6.805 6.805 0 009.716-.097l20.244-20.254a6.794 6.794 0 00-4.941-11.654zM143.012 206.003a6.772 6.772 0 00-4.675 2.041l-20.243 20.255-.004.004a6.788 6.788 0 00-.097 9.705 6.805 6.805 0 009.716-.097l20.244-20.254a6.796 6.796 0 00-4.941-11.654zM193.012 206.003a6.772 6.772 0 00-4.675 2.041l-20.243 20.255-.004.004a6.788 6.788 0 00-.097 9.705 6.805 6.805 0 009.716-.097l20.244-20.254a6.796 6.796 0 00-4.941-11.654z" fill="#B7B8E7"/></svg>