<svg width="256" height="256" fill="none" xmlns="http://www.w3.org/2000/svg"><path d="M196.59 16c-21.044 1.471-37.944 16.679-42.063 36.35 23.162 8.69 40.395 29.63 43.821 54.928.5 0 1.006.091 1.511.091 16.584 0 31.892-8.783 40.143-22.985-1.024.092-2.05.118-3.075.128-25.587 0-46.327-20.477-46.327-45.736a45.15 45.15 0 016.187-22.77L196.59 16z" fill="#B7B8E7"/><path d="M130.402 57.262a59.519 59.519 0 00-32.4 9.623A59.456 59.456 0 0076.08 92.59a43.524 43.524 0 00-16.607-3.324 43.488 43.488 0 00-30.74 12.723A43.418 43.418 0 0016 132.704a43.422 43.422 0 0012.733 30.714 43.49 43.49 0 0030.74 12.722h70.932a59.522 59.522 0 0042.067-17.41 59.42 59.42 0 0017.424-42.03 59.417 59.417 0 00-17.424-42.029 59.523 59.523 0 00-42.067-17.41h-.003z" fill="#EFEFEF"/><path fill-rule="evenodd" clip-rule="evenodd" d="M97.943 200.001a4 4 0 00-2.811 1.214 4.006 4.006 0 00-1.126 2.849v9.055l-7.97-4.555a4.002 4.002 0 00-1.907-.559v-.003a4 4 0 00-2.064 7.499l7.872 4.503-7.868 4.497h-.002a4.001 4.001 0 00-1.494 5.461 4.004 4.004 0 005.463 1.493l7.97-4.559v9.049a3.997 3.997 0 004 4.055 4.002 4.002 0 004-4.055v-9.036l7.954 4.55h.002c.92.526 2.014.665 3.039.384a3.998 3.998 0 002.806-4.916 3.985 3.985 0 00-1.877-2.422l-7.876-4.501 7.877-4.506a4 4 0 001.96-4.427 4.004 4.004 0 00-3.74-3.075v.005a3.988 3.988 0 00-2.188.559l-7.957 4.547v-9.043a4.007 4.007 0 00-1.17-2.894 4.013 4.013 0 00-2.893-1.17v.001zM153.941 184.001a3.994 3.994 0 00-2.809 1.216 3.99 3.99 0 00-1.128 2.847v9.054l-7.969-4.554a4.01 4.01 0 00-1.906-.56v-.002a4.003 4.003 0 00-2.064 7.501l7.872 4.503-7.868 4.496h-.002a4.007 4.007 0 00-1.516 5.476 4.012 4.012 0 005.486 1.478l7.967-4.557v9.044a4 4 0 108 0v-9.035l7.954 4.55h.002a4 4 0 005.484-1.478 4 4 0 00-1.516-5.476l-7.872-4.499 7.874-4.504a4.002 4.002 0 00-1.78-7.501v.003a3.988 3.988 0 00-2.188.559l-7.958 4.548v-9.046a4 4 0 00-4.063-4.064v.001zM41.946 184.001a3.995 3.995 0 00-2.81 1.216 3.99 3.99 0 00-1.128 2.847v9.062l-7.971-4.554a4.016 4.016 0 00-1.907-.56v-.002a4 4 0 00-2.064 7.501l7.87 4.501-7.872 4.498h-.002a4.004 4.004 0 00-1.517 5.475 4.005 4.005 0 005.488 1.479l7.975-4.561v9.04a4.005 4.005 0 004 4.057 4.005 4.005 0 004.002-4.057v-9.027l7.955 4.55h.002a4.001 4.001 0 005.485-1.479c.53-.927.668-2.025.382-3.053a3.995 3.995 0 00-1.899-2.422l-7.876-4.501 7.873-4.502a4 4 0 00-1.78-7.501v.002a3.999 3.999 0 00-2.19.56l-7.953 4.544v-9.05A3.998 3.998 0 0041.947 184v.001z" fill="#B7B8E7"/></svg>