<svg width="256" height="256" viewBox="0 0 256 256" fill="none" xmlns="http://www.w3.org/2000/svg">
<path d="M175 128.498C175 154.181 154.181 175 128.498 175C102.817 175 82 154.181 82 128.498C82 102.817 102.819 82 128.498 82C154.181 82 175 102.819 175 128.498Z" fill="#FDBD46"/>
<path d="M128.13 68.9907C129.756 68.9907 131.316 68.3854 132.465 67.3067C133.616 66.2296 134.262 64.7672 134.262 63.2425V51.7476C134.262 49.6935 133.093 47.7971 131.197 46.7703C129.298 45.7432 126.962 45.7432 125.065 46.7703C123.168 47.7973 122 49.6936 122 51.7476V63.2425C122 64.7671 122.646 66.2296 123.795 67.3067C124.945 68.3854 126.505 68.9907 128.13 68.9907H128.13Z" fill="#FCBE46"/>
<path d="M173.855 88C175.408 88 176.898 87.3817 177.996 86.2842L186.283 78.0036C187.764 76.5227 188.342 74.3649 187.8 72.3429C187.259 70.3211 185.679 68.7413 183.657 68.2002C181.633 67.6577 179.477 68.2358 177.996 69.7166L169.714 78.0032C168.617 79.1006 168 80.5908 168 82.1427C168 83.6962 168.617 85.1863 169.714 86.2838C170.812 87.3813 172.302 87.9996 173.854 87.9996L173.855 88Z" fill="#FCBE46"/>
<path d="M203.818 122H191.938C189.817 122 187.856 123.168 186.795 125.065C185.735 126.962 185.735 129.298 186.795 131.197C187.856 133.093 189.817 134.262 191.938 134.262H203.818C205.939 134.262 207.9 133.093 208.961 131.197C210.022 129.298 210.022 126.962 208.961 125.065C207.9 123.168 205.939 122 203.818 122Z" fill="#FCBE46"/>
<path d="M178.033 169.782C176.946 168.656 175.452 168.014 173.887 168C172.322 167.988 170.817 168.602 169.71 169.71C168.602 170.817 167.988 172.322 168 173.887C168.014 175.452 168.656 176.945 169.782 178.033L178.033 186.29C179.508 187.765 181.657 188.341 183.673 187.801C185.687 187.261 187.261 185.687 187.801 183.673C188.341 181.657 187.765 179.508 186.29 178.033L178.033 169.782Z" fill="#FCBE46"/>
<path d="M127.999 186C126.409 186 124.882 186.632 123.756 187.758C122.632 188.882 122 190.409 122 191.999V204C122 206.143 123.143 208.124 125 209.196C126.856 210.268 129.143 210.268 131 209.196C132.857 208.124 134 206.143 134 204V191.999C134 190.409 133.368 188.882 132.242 187.758C131.118 186.632 129.591 186 127.999 186H127.999Z" fill="#FCBE46"/>
<path d="M77.9307 169.77L69.7047 177.993C68.6138 179.084 68 180.564 68 182.108C68 183.65 68.6138 185.13 69.7047 186.222C70.7957 187.313 72.2749 187.925 73.8171 187.925C75.3608 187.925 76.84 187.313 77.9311 186.222L86.1512 177.999C87.2729 176.915 87.9112 175.426 87.925 173.867C87.9388 172.306 87.3251 170.806 86.2233 169.704C85.1201 168.6 83.6209 167.986 82.0618 168C80.5028 168.014 79.0144 168.654 77.931 169.776L77.9307 169.77Z" fill="#FCBE46"/>
<path d="M63.2429 122H51.7477C49.6936 122 47.7972 123.168 46.7703 125.065C45.7432 126.962 45.7432 129.298 46.7703 131.197C47.7974 133.093 49.6937 134.262 51.7477 134.262H63.2429C65.2971 134.262 67.195 133.093 68.2204 131.197C69.2474 129.298 69.2474 126.962 68.2204 125.065C67.1948 123.168 65.2969 122 63.2429 122V122Z" fill="#FCBE46"/>
<path d="M78.0025 86.2815C79.4893 87.7174 81.6236 88.263 83.6172 87.7174C85.6125 87.1703 87.1704 85.6123 87.7174 83.6171C88.263 81.6232 87.7174 79.4887 86.2816 78.0021L78.0021 69.7164C76.5215 68.2357 74.364 67.6577 72.3423 68.2002C70.3207 68.7412 68.7412 70.3207 68.2002 72.3425C67.6577 74.3641 68.2357 76.5215 69.7163 78.0025L78.0025 86.2815Z" fill="#FCBE46"/>
</svg>
