<svg width="256" height="256" viewBox="0 0 256 256" fill="none" xmlns="http://www.w3.org/2000/svg">
<path d="M110.229 58C95.166 62.3365 81.9367 71.3595 72.5203 83.7146C63.1038 96.0697 58.0111 111.094 58 126.538C58 145.491 65.6513 163.669 79.2696 177.07C92.8879 190.471 111.36 198 130.62 198C145.13 197.989 159.302 193.7 171.312 185.688C183.321 177.676 192.618 166.308 198 153.051C191.379 154.97 184.513 155.95 177.609 155.963C158.348 155.963 139.878 148.436 126.26 135.033C112.639 121.633 104.988 103.456 104.988 84.5039C105.008 75.4225 106.786 66.4278 110.229 58.0002L110.229 58Z" fill="#B7B8E7"/>
</svg>
