<svg width="256" height="256" viewBox="0 0 256 256" fill="none" xmlns="http://www.w3.org/2000/svg">
<path fill-rule="evenodd" clip-rule="evenodd" d="M168.353 67.1041C169.773 67.1041 171.136 66.5748 172.139 65.6316C173.144 64.6898 173.708 63.4109 173.708 62.0777V52.026C173.708 50.2298 172.687 48.5715 171.031 47.6736C169.373 46.7755 167.333 46.7755 165.676 47.6736C164.02 48.5717 163 50.2299 163 52.026V62.0777C163 63.4109 163.564 64.6897 164.567 65.6316C165.572 66.5748 166.934 67.1041 168.353 67.1041ZM208.093 83.4236C209.445 83.4236 210.742 82.8849 211.697 81.9288L218.907 74.7149C220.195 73.4248 220.698 71.545 220.226 69.7835C219.755 68.0221 218.381 66.6458 216.622 66.1744C214.861 65.7018 212.985 66.2054 211.696 67.4954L204.491 74.7146C203.536 75.6706 203 76.9688 203 78.3208C203 79.6742 203.536 80.9723 204.491 81.9285C205.446 82.8846 206.743 83.4232 208.093 83.4232L208.093 83.4236ZM224.185 113H234.56C236.412 113 238.125 114.022 239.051 115.68C239.978 117.339 239.978 119.382 239.051 121.042C238.125 122.701 236.412 123.722 234.56 123.722H224.185C222.333 123.722 220.621 122.701 219.694 121.042C218.768 119.382 218.768 117.339 219.694 115.68C220.62 114.022 222.333 113 224.185 113ZM211.729 155.553C210.783 154.572 209.483 154.012 208.121 154C206.76 153.989 205.451 154.525 204.487 155.489C203.524 156.454 202.989 157.765 203 159.128C203.012 160.492 203.571 161.793 204.55 162.741L211.729 169.934C213.012 171.219 214.881 171.721 216.636 171.25C218.388 170.78 219.758 169.409 220.227 167.654C220.697 165.897 220.196 164.026 218.912 162.74L211.729 155.553ZM131.151 82.626C129.472 83.086 127.675 82.626 126.423 81.4153L119.445 74.4343C118.198 73.1855 117.712 71.3663 118.168 69.6616C118.624 67.9569 119.954 66.625 121.656 66.1688C123.359 65.7114 125.176 66.1988 126.423 67.4473L133.395 74.4339C134.604 75.6874 135.063 77.4873 134.604 79.1685C134.143 80.8509 132.831 82.1646 131.151 82.626Z" fill="#FCBE46"/>
<g filter="url(#filter0_i_4556_4511)">
<path fill-rule="evenodd" clip-rule="evenodd" d="M192.992 151.064C202.523 143.581 208.647 131.944 208.647 118.876C208.647 96.3017 190.369 78 167.822 78C157.508 78 148.088 81.8299 140.902 88.147C153.413 90.5184 165.021 96.4993 174.163 105.453C186.224 117.267 193.001 133.291 193.001 149.999C193.001 150.354 192.998 150.709 192.992 151.064Z" fill="url(#paint0_linear_4556_4511)"/>
</g>
<path d="M126.018 95C114.955 95.0093 104.132 98.2283 94.8602 104.266C85.5885 110.305 78.2664 118.902 73.778 129.019C68.716 126.916 63.289 125.828 57.8069 125.819C46.7184 125.819 36.086 130.226 28.2452 138.07C20.4045 145.914 16 156.554 16 167.648C16 178.739 20.4046 189.379 28.2452 197.223C36.0859 205.067 46.7184 209.474 57.8069 209.474H126.021C141.196 209.474 155.745 203.442 166.475 192.709C177.204 181.974 183.232 167.417 183.232 152.236C183.232 137.057 177.204 122.498 166.475 111.765C155.745 101.031 141.195 95.0001 126.021 95.0001L126.018 95Z" fill="#D5D5E9"/>
<defs>
<filter id="filter0_i_4556_4511" x="140.902" y="78" width="72.7451" height="79.0639" filterUnits="userSpaceOnUse" color-interpolation-filters="sRGB">
<feFlood flood-opacity="0" result="BackgroundImageFix"/>
<feBlend mode="normal" in="SourceGraphic" in2="BackgroundImageFix" result="shape"/>
<feColorMatrix in="SourceAlpha" type="matrix" values="0 0 0 0 0 0 0 0 0 0 0 0 0 0 0 0 0 0 127 0" result="hardAlpha"/>
<feOffset dx="5" dy="6"/>
<feGaussianBlur stdDeviation="7.5"/>
<feComposite in2="hardAlpha" operator="arithmetic" k2="-1" k3="1"/>
<feColorMatrix type="matrix" values="0 0 0 0 1 0 0 0 0 1 0 0 0 0 1 0 0 0 0.5 0"/>
<feBlend mode="normal" in2="shape" result="effect1_innerShadow_4556_4511"/>
</filter>
<linearGradient id="paint0_linear_4556_4511" x1="168.192" y1="78" x2="168.192" y2="159.755" gradientUnits="userSpaceOnUse">
<stop stop-color="#FBD645"/>
<stop offset="1" stop-color="#FFA248"/>
</linearGradient>
</defs>
</svg>
