<svg width="256" height="256" viewBox="0 0 256 256" fill="none" xmlns="http://www.w3.org/2000/svg">
<path d="M196.829 48C175.902 49.4651 159.095 64.6116 155 84.2035C178.033 92.8573 195.171 113.713 198.577 138.909C199.074 138.909 199.578 139 200.08 139C216.572 139 231.795 130.252 240 116.108C238.982 116.199 237.962 116.226 236.942 116.235C211.498 116.235 190.873 95.841 190.873 70.6838C190.873 62.7217 193.004 54.9011 197.025 48.0052L196.829 48Z" fill="#B7B8E7"/>
<path d="M130.47 89C118.96 89.0097 107.698 92.356 98.0516 98.6328C88.4047 104.91 80.7862 113.847 76.1162 124.364C70.8493 122.178 65.2027 121.047 59.4988 121.037C47.9615 121.037 36.8989 125.618 28.7408 133.773C20.5827 141.927 16 152.988 16 164.52C16 176.05 20.5829 187.11 28.7408 195.265C36.8987 203.419 47.9615 208 59.4988 208H130.473C146.262 208 161.4 201.73 172.565 190.573C183.727 179.413 190 164.281 190 148.499C190 132.719 183.727 117.586 172.565 106.427C161.4 95.27 146.262 89.0001 130.473 89.0001L130.47 89Z" fill="#D5D5E9"/>
</svg>
