<svg width="256" height="256" viewBox="0 0 256 256" fill="none" xmlns="http://www.w3.org/2000/svg">
<path d="M138.314 104.07C115.736 103.265 93.5168 116.833 81.8059 137.308L80.9797 138.059C63.5574 131.28 43.5517 132.533 30.1608 145.31C16.77 158.088 12.4181 177.35 19.0775 194.402C25.7341 211.454 42.1398 223.069 60.88 224H135.892V223.895C164.668 222.967 188.76 201.686 193.259 173.134C197.78 144.44 181.228 116.602 153.905 106.949C148.782 105.14 143.548 104.184 138.34 104L138.314 104.07Z" fill="#D5D5E9"/>
<path opacity="0.5" fill-rule="evenodd" clip-rule="evenodd" d="M134.109 63.3647C145.162 44.0845 166.133 31.3083 187.443 32.0655L187.467 32C192.383 32.1737 197.322 33.0736 202.158 34.7773C227.946 43.8667 243.568 70.0809 239.301 97.1016C236.017 117.892 221.676 134.589 202.783 141.495C196.596 119.831 180.38 101.675 158.091 93.7693L158.09 93.769C151.888 91.5696 145.548 90.408 139.25 90.184L131.237 90.46C109.844 92.3204 89.9796 104.541 77.2669 122.171C76.377 120.555 75.5866 118.872 74.9046 117.129C68.6193 101.072 72.7267 82.9326 85.3653 70.9003C98.0039 58.8682 116.886 57.6883 133.329 64.0726L134.109 63.3647Z" fill="#D5D5E9"/>
</svg>
