<svg width="256" height="256" viewBox="0 0 256 256" fill="none" xmlns="http://www.w3.org/2000/svg">
<path d="M138.842 101.059C116.166 100.248 93.8514 113.93 82.09 134.577L81.2602 135.335C63.7627 128.498 43.6707 129.762 30.222 142.647C16.7733 155.532 12.4026 174.957 19.0907 192.153C25.7762 209.349 42.2526 221.062 61.0737 222H136.409V221.895C165.31 220.959 189.506 199.498 194.025 170.706C198.565 141.77 181.941 113.697 154.501 103.963C149.355 102.139 144.099 101.175 138.868 100.989L138.842 101.059Z" fill="#D5D5E9"/>
<path opacity="0.5" fill-rule="evenodd" clip-rule="evenodd" d="M134.109 63.3647C145.162 44.0845 166.133 31.3083 187.443 32.0655L187.467 32C192.383 32.1737 197.322 33.0736 202.158 34.7773C227.946 43.8667 243.568 70.0809 239.301 97.1016C236.017 117.892 221.676 134.589 202.783 141.495C196.596 119.831 180.38 101.675 158.091 93.7693L158.09 93.769C151.888 91.5696 145.548 90.408 139.25 90.184L131.237 90.46C109.844 92.3204 89.9796 104.541 77.2669 122.171C76.377 120.555 75.5866 118.872 74.9046 117.129C68.6193 101.072 72.7267 82.9326 85.3653 70.9003C98.0039 58.8682 116.886 57.6883 133.329 64.0726L134.109 63.3647Z" fill="#D5D5E9"/>
</svg>
