<svg width="256" height="256" viewBox="0 0 256 256" fill="none" xmlns="http://www.w3.org/2000/svg">
<path d="M138.068 78.0649C117.012 77.3144 96.2907 89.9776 85.3694 109.087L84.5988 109.789C68.3511 103.461 49.6942 104.63 37.2061 116.556C24.718 128.482 20.6596 146.46 26.87 162.376C33.0779 178.291 48.3775 189.131 65.8542 190H135.809V189.902C162.645 189.036 185.113 169.173 189.309 142.525C193.525 115.744 178.089 89.7617 152.608 80.7527C147.83 79.0641 142.949 78.1722 138.092 78L138.068 78.0649Z" fill="#D5D5E9"/>
<path opacity="0.5" fill-rule="evenodd" clip-rule="evenodd" d="M134.109 47.3647C145.162 28.0845 166.133 15.3083 187.443 16.0655L187.467 16C192.383 16.1737 197.322 17.0736 202.158 18.7773C227.946 27.8667 243.568 54.0809 239.301 81.1016C235.84 103.017 220.092 120.384 199.678 126.529C197.186 101.639 180.55 79.6559 155.944 71.0056L155.943 71.0052C150.184 68.9812 144.297 67.9122 138.449 67.706L131.008 67.96C110.978 69.6863 92.3922 81.1056 80.6011 97.5466C78.202 96.9355 75.7593 96.4562 73.2939 96.1206C69.5538 81.4074 74.0257 65.6959 85.3653 54.9003C98.0039 42.8682 116.886 41.6883 133.329 48.0726L134.109 47.3647Z" fill="#D5D5E9"/>
<path fill-rule="evenodd" clip-rule="evenodd" d="M43.0118 206.003C41.2453 206.049 39.5685 206.781 38.3369 208.044L18.0936 228.299L18.09 228.303C16.7722 229.566 16.0183 231.309 16.0003 233.136C15.9824 234.962 16.7005 236.717 17.9931 238.008C19.2858 239.3 21.0451 240.018 22.8727 240C24.7004 239.982 26.4418 239.228 27.7092 237.911L47.9526 217.657C49.9561 215.701 50.5521 212.72 49.4606 210.143C48.3691 207.571 45.8089 205.924 43.0119 206.003L43.0118 206.003Z" fill="#B7B8E7"/>
<path fill-rule="evenodd" clip-rule="evenodd" d="M93.0118 206.003C91.2453 206.049 89.5685 206.781 88.3369 208.044L68.0936 228.299L68.09 228.303C66.7722 229.566 66.0183 231.309 66.0003 233.136C65.9824 234.962 66.7005 236.717 67.9931 238.008C69.2858 239.3 71.0451 240.018 72.8727 240C74.7004 239.982 76.4418 239.228 77.7092 237.911L97.9526 217.657C99.9561 215.701 100.552 212.72 99.4606 210.143C98.3691 207.571 95.8089 205.924 93.0119 206.003L93.0118 206.003Z" fill="#B7B8E7"/>
<path fill-rule="evenodd" clip-rule="evenodd" d="M143.012 206.003C141.245 206.049 139.568 206.781 138.337 208.044L118.094 228.299L118.09 228.303C116.772 229.566 116.018 231.309 116 233.136C115.982 234.962 116.7 236.717 117.993 238.008C119.286 239.3 121.045 240.018 122.873 240C124.7 239.982 126.442 239.228 127.709 237.911L147.953 217.657C149.956 215.701 150.552 212.72 149.461 210.143C148.369 207.571 145.809 205.924 143.012 206.003L143.012 206.003Z" fill="#B7B8E7"/>
<path fill-rule="evenodd" clip-rule="evenodd" d="M193.012 206.003C191.245 206.049 189.568 206.781 188.337 208.044L168.094 228.299L168.09 228.303C166.772 229.566 166.018 231.309 166 233.136C165.982 234.962 166.7 236.717 167.993 238.008C169.286 239.3 171.045 240.018 172.873 240C174.7 239.982 176.442 239.228 177.709 237.911L197.953 217.657C199.956 215.701 200.552 212.72 199.461 210.143C198.369 207.571 195.809 205.924 193.012 206.003L193.012 206.003Z" fill="#B7B8E7"/>
</svg>
