<svg width="256" height="256" viewBox="0 0 256 256" fill="none" xmlns="http://www.w3.org/2000/svg">
<path fill-rule="evenodd" clip-rule="evenodd" d="M168.378 36.1041C169.799 36.1041 171.161 35.5748 172.165 34.6316C173.169 33.6898 173.733 32.4109 173.733 31.0777V21.026C173.733 19.2298 172.713 17.5715 171.057 16.6736C169.399 15.7755 167.358 15.7755 165.702 16.6736C164.045 17.5717 163.025 19.2299 163.025 21.026V31.0777C163.025 32.4109 163.589 33.6897 164.592 34.6316C165.597 35.5748 166.96 36.1041 168.378 36.1041ZM208.275 52.8611C209.627 52.8611 210.923 52.3224 211.878 51.3663L219.088 44.1524C220.377 42.8623 220.88 40.9825 220.408 39.221C219.937 37.4596 218.562 36.0833 216.803 35.6119C215.043 35.1393 213.167 35.6429 211.878 36.9329L204.673 44.1521C203.718 45.1081 203.181 46.4063 203.181 47.7583C203.181 49.1117 203.718 50.4098 204.673 51.366C205.628 52.3221 206.924 52.8607 208.275 52.8607L208.275 52.8611ZM224.428 82.3477H234.802C236.654 82.3477 238.367 83.3693 239.294 85.0278C240.22 86.6863 240.22 88.7298 239.294 90.3897C238.367 92.0482 236.654 93.0699 234.802 93.0699H224.428C222.575 93.0699 220.863 92.0482 219.936 90.3897C219.011 88.7298 219.011 86.6863 219.936 85.0278C220.863 83.3693 222.575 82.3477 224.428 82.3477ZM211.91 124.103C210.964 123.123 209.664 122.563 208.303 122.551C206.942 122.54 205.632 123.076 204.669 124.04C203.705 125.005 203.171 126.316 203.182 127.679C203.194 129.042 203.752 130.344 204.732 131.291L211.91 138.484C213.194 139.77 215.063 140.272 216.817 139.801C218.57 139.331 219.939 137.96 220.408 136.205C220.879 134.448 220.378 132.577 219.094 131.291L211.91 124.103ZM131.008 51.3682C129.33 51.8282 127.532 51.3682 126.28 50.1574L119.303 43.1764C118.056 41.9277 117.569 40.1085 118.026 38.4038C118.481 36.6991 119.811 35.3671 121.514 34.911C123.216 34.4535 125.033 34.941 126.28 36.1895L133.252 43.1761C134.461 44.4296 134.921 46.2295 134.461 47.9107C134.001 49.5931 132.689 50.9068 131.008 51.3682Z" fill="#FCBE46"/>
<path fill-rule="evenodd" clip-rule="evenodd" d="M189.822 122.491C201.456 115.288 209.207 102.399 209.207 87.6961C209.207 65.1221 190.93 46.8203 168.382 46.8203C157.241 46.8203 147.142 51.2894 139.776 58.5352C151.87 60.7841 163.096 66.5647 171.923 75.2497C183.484 86.6266 189.98 102.057 189.98 118.146C189.98 119.601 189.927 121.05 189.822 122.491Z" fill="#FDBD46"/>
<path d="M126.006 64.0312C114.943 64.0405 104.12 67.2596 94.8484 73.2977C85.5768 79.3358 78.2546 87.9333 73.7663 98.0506C68.7042 95.9472 63.2773 94.8595 57.7951 94.8502C46.7066 94.8502 36.0743 99.2568 28.2335 107.101C20.3928 114.945 15.9883 125.585 15.9883 136.679C15.9883 147.77 20.3929 158.41 28.2335 166.254C36.0742 174.099 46.7066 178.505 57.7951 178.505H126.009C141.184 178.505 155.733 172.474 166.464 161.741C177.192 151.005 183.221 136.449 183.221 121.267C183.221 106.088 177.192 91.5295 166.464 80.7958C155.733 70.0627 141.183 64.0313 126.009 64.0313L126.006 64.0312Z" fill="#D5D5E9"/>
<path fill-rule="evenodd" clip-rule="evenodd" d="M43.0118 206.003C41.2453 206.049 39.5685 206.781 38.3369 208.044L18.0936 228.299L18.09 228.303C16.7722 229.566 16.0183 231.309 16.0003 233.136C15.9824 234.962 16.7005 236.717 17.9931 238.008C19.2858 239.3 21.0451 240.018 22.8727 240C24.7004 239.982 26.4418 239.228 27.7092 237.911L47.9526 217.657C49.9561 215.701 50.5521 212.72 49.4606 210.143C48.3691 207.571 45.8089 205.924 43.0119 206.003L43.0118 206.003Z" fill="#B7B8E7"/>
<path fill-rule="evenodd" clip-rule="evenodd" d="M93.0118 206.003C91.2453 206.049 89.5685 206.781 88.3369 208.044L68.0936 228.299L68.09 228.303C66.7722 229.566 66.0183 231.309 66.0003 233.136C65.9824 234.962 66.7005 236.717 67.9931 238.008C69.2858 239.3 71.0451 240.018 72.8727 240C74.7004 239.982 76.4418 239.228 77.7092 237.911L97.9526 217.657C99.9561 215.701 100.552 212.72 99.4606 210.143C98.3691 207.571 95.8089 205.924 93.0119 206.003L93.0118 206.003Z" fill="#B7B8E7"/>
<path fill-rule="evenodd" clip-rule="evenodd" d="M143.012 206.003C141.245 206.049 139.568 206.781 138.337 208.044L118.094 228.299L118.09 228.303C116.772 229.566 116.018 231.309 116 233.136C115.982 234.962 116.7 236.717 117.993 238.008C119.286 239.3 121.045 240.018 122.873 240C124.7 239.982 126.442 239.228 127.709 237.911L147.953 217.657C149.956 215.701 150.552 212.72 149.461 210.143C148.369 207.571 145.809 205.924 143.012 206.003L143.012 206.003Z" fill="#B7B8E7"/>
<path fill-rule="evenodd" clip-rule="evenodd" d="M193.012 206.003C191.245 206.049 189.568 206.781 188.337 208.044L168.094 228.299L168.09 228.303C166.772 229.566 166.018 231.309 166 233.136C165.982 234.962 166.7 236.717 167.993 238.008C169.286 239.3 171.045 240.018 172.873 240C174.7 239.982 176.442 239.228 177.709 237.911L197.953 217.657C199.956 215.701 200.552 212.72 199.461 210.143C198.369 207.571 195.809 205.924 193.012 206.003L193.012 206.003Z" fill="#B7B8E7"/>
</svg>
