<svg width="256" height="256" viewBox="0 0 256 256" fill="none" xmlns="http://www.w3.org/2000/svg">
<path d="M196.59 16C175.546 17.4711 158.646 32.679 154.527 52.3504C177.689 61.0393 194.922 81.9794 198.348 107.278C198.848 107.278 199.354 107.369 199.859 107.369C216.443 107.369 231.751 98.5858 240.002 84.3843C238.978 84.476 237.952 84.5025 236.927 84.5121C211.34 84.5121 190.6 64.0351 190.6 38.7758C190.6 30.7815 192.743 22.9291 196.787 16.0052L196.59 16Z" fill="#B7B8E7"/>
<path d="M130.402 57.2617C118.898 57.2714 107.644 60.6142 98.0026 66.8847C88.3615 73.1551 80.7475 82.0834 76.0804 92.5899C70.8166 90.4056 65.1733 89.276 59.4728 89.2664C47.9424 89.2664 36.8864 93.8426 28.7332 101.989C20.58 110.135 16 121.184 16 132.704C16 144.222 20.5801 155.271 28.7332 163.418C36.8863 171.564 47.9424 176.14 59.4728 176.14H130.405C146.185 176.14 161.314 169.876 172.472 158.73C183.627 147.582 189.896 132.465 189.896 116.7C189.896 100.936 183.627 85.818 172.472 74.6713C161.314 63.5253 146.184 57.2618 130.405 57.2618L130.402 57.2617Z" fill="#D5D5E9"/>
<path fill-rule="evenodd" clip-rule="evenodd" d="M43.0118 206.003C41.2453 206.049 39.5685 206.781 38.3369 208.044L18.0936 228.299L18.09 228.303C16.7722 229.566 16.0183 231.309 16.0003 233.136C15.9824 234.962 16.7005 236.717 17.9931 238.008C19.2858 239.3 21.0451 240.018 22.8727 240C24.7004 239.982 26.4418 239.228 27.7092 237.911L47.9526 217.657C49.9561 215.701 50.5521 212.72 49.4606 210.143C48.3691 207.571 45.8089 205.924 43.0119 206.003L43.0118 206.003Z" fill="#B7B8E7"/>
<path fill-rule="evenodd" clip-rule="evenodd" d="M93.0118 206.003C91.2453 206.049 89.5685 206.781 88.3369 208.044L68.0936 228.299L68.09 228.303C66.7722 229.566 66.0183 231.309 66.0003 233.136C65.9824 234.962 66.7005 236.717 67.9931 238.008C69.2858 239.3 71.0451 240.018 72.8727 240C74.7004 239.982 76.4418 239.228 77.7092 237.911L97.9526 217.657C99.9561 215.701 100.552 212.72 99.4606 210.143C98.3691 207.571 95.8089 205.924 93.0119 206.003L93.0118 206.003Z" fill="#B7B8E7"/>
<path fill-rule="evenodd" clip-rule="evenodd" d="M143.012 206.003C141.245 206.049 139.568 206.781 138.337 208.044L118.094 228.299L118.09 228.303C116.772 229.566 116.018 231.309 116 233.136C115.982 234.962 116.7 236.717 117.993 238.008C119.286 239.3 121.045 240.018 122.873 240C124.7 239.982 126.442 239.228 127.709 237.911L147.953 217.657C149.956 215.701 150.552 212.72 149.461 210.143C148.369 207.571 145.809 205.924 143.012 206.003L143.012 206.003Z" fill="#B7B8E7"/>
<path fill-rule="evenodd" clip-rule="evenodd" d="M193.012 206.003C191.245 206.049 189.568 206.781 188.337 208.044L168.094 228.299L168.09 228.303C166.772 229.566 166.018 231.309 166 233.136C165.982 234.962 166.7 236.717 167.993 238.008C169.286 239.3 171.045 240.018 172.873 240C174.7 239.982 176.442 239.228 177.709 237.911L197.953 217.657C199.956 215.701 200.552 212.72 199.461 210.143C198.369 207.571 195.809 205.924 193.012 206.003L193.012 206.003Z" fill="#B7B8E7"/>
</svg>
