<svg width="256" height="256" viewBox="0 0 256 256" fill="none" xmlns="http://www.w3.org/2000/svg">
<path fill-rule="evenodd" clip-rule="evenodd" d="M168.379 36.1041C169.799 36.1041 171.161 35.5748 172.165 34.6316C173.17 33.6898 173.733 32.4109 173.733 31.0777V21.026C173.733 19.2298 172.713 17.5715 171.057 16.6736C169.399 15.7755 167.358 15.7755 165.702 16.6736C164.046 17.5717 163.025 19.2299 163.025 21.026V31.0777C163.025 32.4109 163.589 33.6897 164.593 34.6316C165.597 35.5748 166.96 36.1041 168.379 36.1041ZM208.275 52.8611C209.627 52.8611 210.924 52.3224 211.878 51.3663L219.089 44.1524C220.377 42.8623 220.88 40.9825 220.408 39.221C219.937 37.4596 218.563 36.0833 216.803 35.6119C215.043 35.1393 213.167 35.6429 211.878 36.9329L204.673 44.1521C203.718 45.1081 203.182 46.4063 203.182 47.7583C203.182 49.1117 203.718 50.4098 204.673 51.366C205.628 52.3221 206.925 52.8607 208.275 52.8607L208.275 52.8611ZM224.428 82.3477H234.802C236.654 82.3477 238.367 83.3693 239.294 85.0278C240.221 86.6863 240.221 88.7298 239.294 90.3897C238.367 92.0482 236.655 93.0699 234.802 93.0699H224.428C222.576 93.0699 220.863 92.0482 219.936 90.3897C219.011 88.7298 219.011 86.6863 219.936 85.0278C220.863 83.3693 222.576 82.3477 224.428 82.3477ZM211.911 124.103C210.965 123.123 209.665 122.563 208.303 122.551C206.942 122.54 205.633 123.076 204.669 124.04C203.706 125.005 203.171 126.316 203.182 127.679C203.194 129.042 203.753 130.344 204.732 131.291L211.91 138.484C213.194 139.77 215.063 140.272 216.817 139.801C218.57 139.331 219.94 137.96 220.409 136.205C220.879 134.448 220.378 132.577 219.094 131.291L211.911 124.103ZM131.009 51.3682C129.33 51.8282 127.533 51.3682 126.281 50.1574L119.303 43.1764C118.056 41.9277 117.569 40.1085 118.026 38.4038C118.482 36.6991 119.812 35.3671 121.514 34.911C123.217 34.4535 125.033 34.941 126.28 36.1895L133.252 43.1761C134.461 44.4296 134.921 46.2295 134.461 47.9107C134.001 49.5931 132.689 50.9068 131.009 51.3682Z" fill="#FCBE46"/>
<path fill-rule="evenodd" clip-rule="evenodd" d="M189.822 122.491C201.456 115.288 209.207 102.399 209.207 87.6961C209.207 65.1221 190.93 46.8203 168.382 46.8203C157.241 46.8203 147.142 51.2894 139.776 58.5352C151.87 60.7841 163.096 66.5647 171.923 75.2497C183.484 86.6266 189.98 102.057 189.98 118.146C189.98 119.601 189.927 121.05 189.822 122.491Z" fill="#FDBD46"/>
<path d="M126.018 64.0312C114.955 64.0405 104.132 67.2596 94.8602 73.2977C85.5885 79.3358 78.2664 87.9333 73.778 98.0506C68.716 95.9472 63.289 94.8595 57.8069 94.8502C46.7184 94.8502 36.086 99.2568 28.2452 107.101C20.4045 114.945 16 125.585 16 136.679C16 147.77 20.4046 158.41 28.2452 166.254C36.0859 174.099 46.7184 178.505 57.8069 178.505H126.021C141.196 178.505 155.745 172.474 166.475 161.741C177.204 151.005 183.232 136.449 183.232 121.267C183.232 106.088 177.204 91.5295 166.475 80.7958C155.745 70.0627 141.195 64.0313 126.021 64.0313L126.018 64.0312Z" fill="#D5D5E9"/>
<path fill-rule="evenodd" clip-rule="evenodd" d="M154.067 200.002C152.82 200.035 151.637 200.551 150.767 201.443L136.478 215.74L136.475 215.743C135.545 216.635 135.013 217.865 135 219.155C134.988 220.444 135.494 221.682 136.407 222.594C137.319 223.506 138.561 224.012 139.851 224C141.141 223.987 142.371 223.455 143.265 222.526L157.555 208.228C158.969 206.848 159.39 204.743 158.619 202.925C157.849 201.109 156.042 199.946 154.067 200.002L154.067 200.002Z" fill="#B7B8E7"/>
<path fill-rule="evenodd" clip-rule="evenodd" d="M35.0672 200.002C33.8202 200.035 32.6366 200.551 31.7672 201.443L17.4778 215.74L17.4753 215.743C16.5451 216.635 16.0129 217.865 16.0002 219.155C15.9876 220.444 16.4945 221.682 17.4069 222.594C18.3194 223.506 19.5613 224.012 20.8513 224C22.1414 223.987 23.3707 223.455 24.2653 222.526L38.5548 208.228C39.969 206.848 40.3897 204.743 39.6192 202.925C38.8487 201.109 37.0416 199.946 35.0672 200.002L35.0672 200.002Z" fill="#B7B8E7"/>
<path fill-rule="evenodd" clip-rule="evenodd" d="M188.067 200.002C186.82 200.035 185.637 200.551 184.767 201.443L170.478 215.74L170.475 215.743C169.545 216.635 169.013 217.865 169 219.155C168.988 220.444 169.494 221.682 170.407 222.594C171.319 223.506 172.561 224.012 173.851 224C175.141 223.987 176.371 223.455 177.265 222.526L191.555 208.228C192.969 206.848 193.39 204.743 192.619 202.925C191.849 201.109 190.042 199.946 188.067 200.002L188.067 200.002Z" fill="#B7B8E7"/>
<path fill-rule="evenodd" clip-rule="evenodd" d="M69.0672 200.002C67.8202 200.035 66.6366 200.551 65.7672 201.443L51.4778 215.74L51.4753 215.743C50.5451 216.635 50.0129 217.865 50.0002 219.155C49.9876 220.444 50.4945 221.682 51.4069 222.594C52.3194 223.506 53.5613 224.012 54.8513 224C56.1414 223.987 57.3707 223.455 58.2653 222.526L72.5548 208.228C73.969 206.848 74.3897 204.743 73.6192 202.925C72.8487 201.109 71.0416 199.946 69.0672 200.002L69.0672 200.002Z" fill="#B7B8E7"/>
<path fill-rule="evenodd" clip-rule="evenodd" d="M122.587 184.001L108.117 204.696H125L87.6166 240L100.883 212H84L100.883 184L122.587 184.001Z" fill="#FDBD46"/>
</svg>
