<svg width="256" height="256" viewBox="0 0 256 256" fill="none" xmlns="http://www.w3.org/2000/svg">
<path d="M196.59 16C175.546 17.4711 158.646 32.679 154.527 52.3504C177.689 61.0393 194.922 81.9794 198.348 107.278C198.848 107.278 199.354 107.369 199.859 107.369C216.443 107.369 231.751 98.5858 240.002 84.3843C238.978 84.476 237.952 84.5025 236.927 84.5121C211.34 84.5121 190.6 64.0351 190.6 38.7758C190.6 30.7815 192.743 22.9291 196.787 16.0052L196.59 16Z" fill="#B7B8E7"/>
<path d="M130.402 57.2617C118.898 57.2714 107.644 60.6142 98.0026 66.8847C88.3615 73.1551 80.7475 82.0834 76.0804 92.5899C70.8166 90.4056 65.1733 89.276 59.4728 89.2664C47.9424 89.2664 36.8864 93.8426 28.7332 101.989C20.58 110.135 16 121.184 16 132.704C16 144.222 20.5801 155.271 28.7332 163.418C36.8863 171.564 47.9424 176.14 59.4728 176.14H130.405C146.185 176.14 161.314 169.876 172.472 158.73C183.627 147.582 189.896 132.465 189.896 116.7C189.896 100.936 183.627 85.818 172.472 74.6713C161.314 63.5253 146.184 57.2618 130.405 57.2618L130.402 57.2617Z" fill="#D5D5E9"/>
<path fill-rule="evenodd" clip-rule="evenodd" d="M154.067 200.002C152.82 200.035 151.637 200.551 150.767 201.443L136.478 215.74L136.475 215.743C135.545 216.635 135.013 217.865 135 219.155C134.988 220.444 135.494 221.682 136.407 222.594C137.319 223.506 138.561 224.012 139.851 224C141.141 223.987 142.371 223.455 143.265 222.526L157.555 208.228C158.969 206.848 159.39 204.743 158.619 202.925C157.849 201.109 156.042 199.946 154.067 200.002L154.067 200.002Z" fill="#B7B8E7"/>
<path fill-rule="evenodd" clip-rule="evenodd" d="M35.0672 200.002C33.8202 200.035 32.6366 200.551 31.7672 201.443L17.4778 215.74L17.4753 215.743C16.5451 216.635 16.0129 217.865 16.0002 219.155C15.9876 220.444 16.4945 221.682 17.4069 222.594C18.3194 223.506 19.5613 224.012 20.8513 224C22.1414 223.987 23.3707 223.455 24.2653 222.526L38.5548 208.228C39.969 206.848 40.3897 204.743 39.6192 202.925C38.8487 201.109 37.0416 199.946 35.0672 200.002L35.0672 200.002Z" fill="#B7B8E7"/>
<path fill-rule="evenodd" clip-rule="evenodd" d="M188.067 200.002C186.82 200.035 185.637 200.551 184.767 201.443L170.478 215.74L170.475 215.743C169.545 216.635 169.013 217.865 169 219.155C168.988 220.444 169.494 221.682 170.407 222.594C171.319 223.506 172.561 224.012 173.851 224C175.141 223.987 176.371 223.455 177.265 222.526L191.555 208.228C192.969 206.848 193.39 204.743 192.619 202.925C191.849 201.109 190.042 199.946 188.067 200.002L188.067 200.002Z" fill="#B7B8E7"/>
<path fill-rule="evenodd" clip-rule="evenodd" d="M69.0672 200.002C67.8202 200.035 66.6366 200.551 65.7672 201.443L51.4778 215.74L51.4753 215.743C50.5451 216.635 50.0129 217.865 50.0002 219.155C49.9876 220.444 50.4945 221.682 51.4069 222.594C52.3194 223.506 53.5613 224.012 54.8513 224C56.1414 223.987 57.3707 223.455 58.2653 222.526L72.5548 208.228C73.969 206.848 74.3897 204.743 73.6192 202.925C72.8487 201.109 71.0416 199.946 69.0672 200.002L69.0672 200.002Z" fill="#B7B8E7"/>
<path fill-rule="evenodd" clip-rule="evenodd" d="M122.587 184.001L108.117 204.696H125L87.6166 240L100.883 212H84L100.883 184L122.587 184.001Z" fill="#FDBD46"/>
</svg>
