<svg width="256" height="256" viewBox="0 0 256 256" fill="none" xmlns="http://www.w3.org/2000/svg">
<path d="M196.59 16C175.546 17.4711 158.646 32.679 154.527 52.3504C177.689 61.0393 194.922 81.9794 198.348 107.278C198.848 107.278 199.354 107.369 199.859 107.369C216.443 107.369 231.751 98.5858 240.002 84.3843C238.978 84.476 237.952 84.5025 236.927 84.5121C211.34 84.5121 190.6 64.0351 190.6 38.7758C190.6 30.7815 192.743 22.9291 196.787 16.0052L196.59 16Z" fill="#B7B8E7"/>
<path d="M130.402 57.2617C118.898 57.2714 107.644 60.6142 98.0026 66.8847C88.3615 73.1551 80.7475 82.0834 76.0804 92.5899C70.8166 90.4056 65.1733 89.276 59.4728 89.2664C47.9424 89.2664 36.8864 93.8426 28.7332 101.989C20.58 110.135 16 121.184 16 132.704C16 144.222 20.5801 155.271 28.7332 163.418C36.8863 171.564 47.9424 176.14 59.4728 176.14H130.405C146.185 176.14 161.314 169.876 172.472 158.73C183.627 147.582 189.896 132.465 189.896 116.7C189.896 100.936 183.627 85.818 172.472 74.6713C161.314 63.5253 146.184 57.2618 130.405 57.2618L130.402 57.2617Z" fill="#D5D5E9"/>
<path fill-rule="evenodd" clip-rule="evenodd" d="M97.9429 200.001C96.8828 200.015 95.8712 200.455 95.132 201.215C94.3949 201.977 93.9894 203.002 94.0064 204.064V213.119L86.0358 208.564C85.4571 208.22 84.8003 208.028 84.1288 208.005L84.1288 208.002C82.2808 207.943 80.6336 209.157 80.1436 210.94C79.6536 212.722 80.4477 214.608 82.0654 215.501L89.9367 220.004L82.0686 224.501H82.0665C81.1436 225.027 80.4699 225.897 80.189 226.921C79.9081 227.945 80.0475 229.039 80.5733 229.962C81.0992 230.885 81.9714 231.561 82.9957 231.84C84.0199 232.121 85.1139 231.981 86.0368 231.455L94.0064 226.896V235.945C93.9916 237.016 94.4055 238.047 95.1574 238.809C95.9092 239.571 96.9356 240 98.0063 240C99.077 240 100.103 239.571 100.855 238.809C101.607 238.047 102.021 237.016 102.006 235.945V226.909L109.96 231.459H109.962C110.882 231.985 111.976 232.124 113.001 231.843C114.025 231.565 114.897 230.889 115.423 229.966C115.949 229.043 116.088 227.951 115.807 226.927C115.529 225.901 114.853 225.03 113.93 224.505L106.054 220.004L113.931 215.498C115.504 214.63 116.307 212.82 115.891 211.071C115.475 209.322 113.946 208.066 112.151 207.996L112.151 208.001C111.382 207.973 110.622 208.167 109.963 208.56L102.006 213.107V204.064C102.023 202.98 101.601 201.937 100.836 201.17C100.07 200.406 99.0263 199.984 97.9429 200L97.9429 200.001Z" fill="#B7B8E7"/>
<path fill-rule="evenodd" clip-rule="evenodd" d="M153.941 184.001C152.881 184.017 151.869 184.455 151.132 185.217C150.393 185.977 149.987 187.001 150.004 188.064V197.118L142.035 192.564C141.457 192.22 140.8 192.028 140.129 192.004L140.129 192.002C138.281 191.943 136.634 193.157 136.144 194.94C135.654 196.722 136.448 198.608 138.065 199.503L145.937 204.006L138.069 208.502H138.067C137.138 209.023 136.454 209.896 136.171 210.924C135.886 211.952 136.023 213.051 136.551 213.978C137.081 214.903 137.958 215.58 138.986 215.857C140.016 216.136 141.115 215.99 142.037 215.456L150.004 210.899V219.943C149.99 221.014 150.404 222.047 151.155 222.807C151.907 223.569 152.933 224 154.004 224C155.075 224 156.101 223.569 156.853 222.807C157.605 222.047 158.019 221.014 158.004 219.943V210.908L165.958 215.458H165.96C166.883 215.994 167.981 216.138 169.009 215.861C170.04 215.582 170.916 214.907 171.444 213.98C171.974 213.053 172.112 211.954 171.827 210.926C171.541 209.898 170.859 209.025 169.928 208.504L162.056 204.005L169.93 199.501C171.503 198.633 172.306 196.821 171.89 195.073C171.474 193.324 169.945 192.068 168.15 192L168.15 192.003C167.381 191.975 166.621 192.169 165.962 192.562L158.004 197.11V188.064C158.021 186.98 157.598 185.937 156.834 185.173C156.067 184.406 155.024 183.984 153.941 184L153.941 184.001Z" fill="#B7B8E7"/>
<path fill-rule="evenodd" clip-rule="evenodd" d="M41.9455 184.001C40.8852 184.017 39.8734 184.455 39.1362 185.217C38.397 185.977 37.9914 187.001 38.0083 188.064V197.126L30.0368 192.572C29.458 192.228 28.8011 192.036 28.1295 192.012L28.1294 192.01C26.2812 191.951 24.6337 193.165 24.1436 194.947C23.6536 196.73 24.4478 198.616 26.0658 199.511L33.9362 204.012L26.064 208.51H26.0619C25.1325 209.031 24.4482 209.903 24.1651 210.932C23.88 211.96 24.0173 213.058 24.5453 213.985C25.0755 214.91 25.9521 215.588 26.9808 215.865C28.0115 216.144 29.1099 215.998 30.0329 215.464L38.0083 210.903V219.943C37.9935 221.014 38.4075 222.047 39.1595 222.807C39.9114 223.569 40.938 224 42.0089 224C43.0798 224 44.1064 223.569 44.8583 222.807C45.6103 222.047 46.0243 221.014 46.0095 219.943V210.916L53.9645 215.466H53.9666C54.8897 216.002 55.986 216.146 57.0167 215.869C58.0475 215.59 58.924 214.914 59.4521 213.987C59.9823 213.06 60.1196 211.962 59.8344 210.934C59.5493 209.905 58.867 209.033 57.9355 208.512L50.0589 204.011L57.9317 199.509C59.5053 198.641 60.3059 196.829 59.8919 195.081C59.4758 193.332 57.9465 192.076 56.1511 192.008L56.1511 192.01C55.3822 191.983 54.6218 192.177 53.9628 192.57L46.0095 197.114V188.064C46.0264 186.98 45.6039 185.937 44.8393 185.173C44.0725 184.406 43.0291 183.984 41.9455 184L41.9455 184.001Z" fill="#B7B8E7"/>
</svg>
