<svg width="256" height="256" viewBox="0 0 256 256" fill="none" xmlns="http://www.w3.org/2000/svg">
<path fill-rule="evenodd" clip-rule="evenodd" d="M168.379 36.1041C169.799 36.1041 171.161 35.5748 172.165 34.6316C173.17 33.6898 173.733 32.4109 173.733 31.0777V21.026C173.733 19.2298 172.713 17.5715 171.057 16.6736C169.399 15.7755 167.358 15.7755 165.702 16.6736C164.046 17.5717 163.025 19.2299 163.025 21.026V31.0777C163.025 32.4109 163.589 33.6897 164.593 34.6316C165.597 35.5748 166.96 36.1041 168.379 36.1041ZM208.275 52.8611C209.627 52.8611 210.924 52.3224 211.878 51.3663L219.089 44.1524C220.377 42.8623 220.88 40.9825 220.408 39.221C219.937 37.4596 218.563 36.0833 216.803 35.6119C215.043 35.1393 213.167 35.6429 211.878 36.9329L204.673 44.1521C203.718 45.1081 203.182 46.4063 203.182 47.7583C203.182 49.1117 203.718 50.4098 204.673 51.366C205.628 52.3221 206.925 52.8607 208.275 52.8607L208.275 52.8611ZM224.428 82.3477H234.802C236.654 82.3477 238.367 83.3693 239.294 85.0278C240.221 86.6863 240.221 88.7298 239.294 90.3897C238.367 92.0482 236.655 93.0699 234.802 93.0699H224.428C222.576 93.0699 220.863 92.0482 219.936 90.3897C219.011 88.7298 219.011 86.6863 219.936 85.0278C220.863 83.3693 222.576 82.3477 224.428 82.3477ZM211.911 124.103C210.965 123.123 209.665 122.563 208.303 122.551C206.942 122.54 205.633 123.076 204.669 124.04C203.706 125.005 203.171 126.316 203.182 127.679C203.194 129.042 203.753 130.344 204.732 131.291L211.91 138.484C213.194 139.77 215.063 140.272 216.817 139.801C218.57 139.331 219.94 137.96 220.409 136.205C220.879 134.448 220.378 132.577 219.094 131.291L211.911 124.103ZM131.009 51.3682C129.33 51.8282 127.533 51.3682 126.281 50.1574L119.303 43.1764C118.056 41.9277 117.569 40.1085 118.026 38.4038C118.482 36.6991 119.812 35.3671 121.514 34.911C123.217 34.4535 125.033 34.941 126.28 36.1895L133.252 43.1761C134.461 44.4296 134.921 46.2295 134.461 47.9107C134.001 49.5931 132.689 50.9068 131.009 51.3682Z" fill="#FCBE46"/>
<path fill-rule="evenodd" clip-rule="evenodd" d="M189.822 122.491C201.456 115.288 209.207 102.399 209.207 87.6961C209.207 65.1221 190.93 46.8203 168.382 46.8203C157.241 46.8203 147.142 51.2894 139.776 58.5352C151.87 60.7841 163.096 66.5647 171.923 75.2497C183.484 86.6266 189.98 102.057 189.98 118.146C189.98 119.601 189.927 121.05 189.822 122.491Z" fill="#FDBD46"/>
<path d="M126.006 64.0312C114.943 64.0405 104.12 67.2596 94.8484 73.2977C85.5768 79.3358 78.2546 87.9333 73.7663 98.0506C68.7042 95.9472 63.2773 94.8595 57.7951 94.8502C46.7066 94.8502 36.0743 99.2568 28.2335 107.101C20.3928 114.945 15.9883 125.585 15.9883 136.679C15.9883 147.77 20.3929 158.41 28.2335 166.254C36.0742 174.099 46.7066 178.505 57.7951 178.505H126.009C141.184 178.505 155.733 172.474 166.464 161.741C177.192 151.005 183.221 136.449 183.221 121.267C183.221 106.088 177.192 91.5295 166.464 80.7958C155.733 70.0627 141.183 64.0313 126.009 64.0313L126.006 64.0312Z" fill="#D5D5E9"/>
<path fill-rule="evenodd" clip-rule="evenodd" d="M82.5569 193.781C79.3593 193.781 76.1527 194.903 73.5518 197.134L68.4315 201.52C66.8049 202.914 63.3135 202.914 61.6867 201.52C59.3105 199.483 54.4444 195.308 54.4444 195.308C53.5559 194.509 52.3898 194.111 51.2121 194.206C50.0345 194.301 48.9424 194.877 48.1857 195.806C47.4291 196.736 47.0705 197.94 47.1908 199.144C47.3111 200.346 47.9011 201.451 48.8289 202.203C48.8289 202.203 53.6994 206.38 56.0712 208.412C61.2749 212.871 68.8618 212.871 74.0653 208.412L79.1857 204.026C80.8122 202.632 84.306 202.632 85.9304 204.026L91.0507 208.412C96.2544 212.871 103.841 212.871 109.045 208.412L114.165 204.026C115.792 202.632 119.285 202.632 120.912 204.026L126.03 208.412C131.234 212.871 138.821 212.871 144.024 208.412L149.145 204.026C150.771 202.632 154.265 202.632 155.889 204.026L161.01 208.412C166.213 212.871 173.8 212.871 179.004 208.412L184.124 204.026C185.751 202.632 189.245 202.632 190.869 204.026C193.192 206.015 197.752 209.92 197.752 209.92L197.748 209.922C199.606 211.515 202.373 211.264 203.93 209.36C204.675 208.447 205.039 207.267 204.935 206.079C204.833 204.891 204.273 203.793 203.382 203.028C203.382 203.028 198.805 199.123 196.483 197.134C191.279 192.676 183.692 192.676 178.489 197.134L173.368 201.52C171.742 202.914 168.25 202.914 166.623 201.52L161.503 197.134C156.299 192.676 148.713 192.676 143.509 197.134L138.389 201.52C136.762 202.914 133.268 202.914 131.644 201.52L126.524 197.134C121.32 192.676 113.733 192.676 108.53 197.134L103.412 201.52C101.785 202.914 98.2912 202.914 96.6644 201.52L91.5441 197.134C88.9434 194.905 85.7528 193.781 82.555 193.781L82.5569 193.781Z" fill="#B7B8E7"/>
<path fill-rule="evenodd" clip-rule="evenodd" d="M82.5569 222.023C79.3593 222.023 76.1527 223.145 73.5518 225.376L68.4315 229.762C66.8049 231.156 63.3135 231.156 61.6867 229.762C59.3105 227.725 54.4444 223.551 54.4444 223.551C53.5559 222.752 52.3898 222.353 51.2121 222.448C50.0344 222.541 48.9424 223.119 48.1857 224.048C47.4291 224.978 47.0705 226.18 47.1908 227.384C47.3111 228.589 47.9011 229.691 48.8289 230.445C48.8289 230.445 53.6994 234.622 56.0712 236.654C61.2749 241.114 68.8618 241.114 74.0653 236.654L79.1857 232.268C80.8122 230.874 84.306 230.874 85.9304 232.268L91.0507 236.654C96.2544 241.114 103.841 241.114 109.045 236.654L114.165 232.268C115.792 230.874 119.285 230.874 120.912 232.268L126.03 236.654C131.234 241.114 138.821 241.114 144.024 236.654L149.145 232.268C150.771 230.874 154.265 230.874 155.889 232.268L161.01 236.654C166.213 241.114 173.8 241.114 179.004 236.654L184.124 232.268C185.751 230.874 189.245 230.874 190.869 232.268C193.192 234.257 197.752 238.162 197.752 238.162L197.748 238.164C199.606 239.757 202.373 239.506 203.93 237.602C204.675 236.687 205.039 235.506 204.935 234.319C204.833 233.131 204.273 232.033 203.382 231.27C203.382 231.27 198.805 227.365 196.483 225.376C191.279 220.919 183.692 220.919 178.489 225.376L173.368 229.762C171.742 231.156 168.25 231.156 166.623 229.762L161.503 225.376C156.299 220.919 148.713 220.919 143.509 225.376L138.389 229.762C136.762 231.156 133.268 231.156 131.644 229.762L126.524 225.376C121.32 220.919 113.733 220.919 108.53 225.376L103.412 229.762C101.785 231.156 98.2912 231.156 96.6644 229.762L91.5441 225.376C88.9434 223.147 85.7528 222.023 82.555 222.023L82.5569 222.023Z" fill="#B7B8E7"/>
</svg>
