<svg width="256" height="256" viewBox="0 0 256 256" fill="none" xmlns="http://www.w3.org/2000/svg">
<path d="M196.59 16C175.546 17.4711 158.646 32.679 154.527 52.3504C177.689 61.0393 194.922 81.9794 198.348 107.278C198.848 107.278 199.354 107.369 199.859 107.369C216.443 107.369 231.751 98.5858 240.002 84.3843C238.978 84.476 237.952 84.5025 236.927 84.5121C211.34 84.5121 190.6 64.0351 190.6 38.7758C190.6 30.7815 192.743 22.9291 196.787 16.0052L196.59 16Z" fill="#B7B8E7"/>
<path d="M130.402 57.2617C118.898 57.2714 107.644 60.6142 98.0026 66.8847C88.3615 73.1551 80.7475 82.0834 76.0804 92.5899C70.8166 90.4056 65.1733 89.276 59.4728 89.2664C47.9424 89.2664 36.8864 93.8426 28.7332 101.989C20.58 110.135 16 121.184 16 132.704C16 144.222 20.5801 155.271 28.7332 163.418C36.8863 171.564 47.9424 176.14 59.4728 176.14H130.405C146.185 176.14 161.314 169.876 172.472 158.73C183.627 147.582 189.896 132.465 189.896 116.7C189.896 100.936 183.627 85.818 172.472 74.6713C161.314 63.5253 146.184 57.2618 130.405 57.2618L130.402 57.2617Z" fill="#D5D5E9"/>
<path fill-rule="evenodd" clip-rule="evenodd" d="M85.2209 192.004C81.8959 192.004 78.5616 193.168 75.857 195.485L70.5327 200.04C68.8413 201.488 65.2107 201.488 63.5192 200.04C61.0483 197.925 55.9883 193.59 55.9883 193.59C55.0644 192.76 53.8518 192.346 52.6272 192.445C51.4026 192.543 50.267 193.142 49.4802 194.107C48.6934 195.072 48.3205 196.323 48.4456 197.573C48.5707 198.822 49.1842 199.969 50.149 200.749C50.149 200.749 55.2136 205.088 57.6799 207.197C63.0909 211.829 70.9802 211.829 76.3911 207.197L81.7154 202.642C83.4068 201.195 87.0397 201.195 88.7289 202.642L94.0533 207.197C99.4643 211.829 107.354 211.829 112.764 207.197L118.089 202.642C119.78 201.195 123.413 201.195 125.105 202.642L130.427 207.197C135.838 211.829 143.727 211.829 149.138 207.197L154.462 202.642C156.154 201.195 159.787 201.195 161.476 202.642L166.8 207.197C172.211 211.829 180.1 211.829 185.511 207.197L190.836 202.642C192.527 201.195 196.16 201.195 197.849 202.642C200.265 204.708 205.007 208.763 205.007 208.763L205.002 208.766C206.934 210.42 209.811 210.159 211.431 208.182C212.206 207.234 212.583 206.008 212.475 204.775C212.369 203.541 211.787 202.401 210.861 201.606C210.861 201.606 206.102 197.551 203.686 195.485C198.275 190.857 190.386 190.857 184.975 195.485L179.651 200.04C177.96 201.488 174.329 201.488 172.637 200.04L167.313 195.485C161.902 190.857 154.013 190.857 148.602 195.485L143.278 200.04C141.586 201.488 137.953 201.488 136.264 200.04L130.94 195.485C125.529 190.857 117.639 190.857 112.229 195.485L106.907 200.04C105.215 201.488 101.582 201.488 99.8906 200.04L94.5663 195.485C91.862 193.171 88.5442 192.004 85.219 192.004L85.2209 192.004Z" fill="#B7B8E7"/>
<path fill-rule="evenodd" clip-rule="evenodd" d="M85.2209 221.332C81.8959 221.332 78.5616 222.497 75.857 224.813L70.5327 229.368C68.8413 230.816 65.2107 230.816 63.5192 229.368C61.0483 227.253 55.9883 222.918 55.9883 222.918C55.0644 222.088 53.8518 221.674 52.6272 221.773C51.4025 221.869 50.267 222.47 49.4802 223.435C48.6934 224.4 48.3205 225.648 48.4456 226.899C48.5707 228.15 49.1842 229.295 50.149 230.078C50.149 230.078 55.2136 234.416 57.6799 236.525C63.0909 241.157 70.9802 241.157 76.3911 236.525L81.7154 231.971C83.4068 230.523 87.0397 230.523 88.7289 231.971L94.0533 236.525C99.4643 241.157 107.354 241.157 112.764 236.525L118.089 231.971C119.78 230.523 123.413 230.523 125.105 231.971L130.427 236.525C135.838 241.157 143.727 241.157 149.138 236.525L154.462 231.971C156.154 230.523 159.787 230.523 161.476 231.971L166.8 236.525C172.211 241.157 180.1 241.157 185.511 236.525L190.836 231.971C192.527 230.523 196.16 230.523 197.849 231.971C200.265 234.036 205.007 238.091 205.007 238.091L205.002 238.094C206.934 239.748 209.811 239.487 211.431 237.51C212.206 236.56 212.583 235.334 212.475 234.1C212.369 232.867 211.787 231.727 210.861 230.934C210.861 230.934 206.102 226.879 203.686 224.813C198.275 220.185 190.386 220.185 184.975 224.813L179.651 229.368C177.96 230.816 174.329 230.816 172.637 229.368L167.313 224.813C161.902 220.185 154.013 220.185 148.602 224.813L143.278 229.368C141.586 230.816 137.953 230.816 136.264 229.368L130.94 224.813C125.529 220.185 117.639 220.185 112.229 224.813L106.907 229.368C105.215 230.816 101.582 230.816 99.8906 229.368L94.5663 224.813C91.862 222.499 88.5442 221.332 85.219 221.332L85.2209 221.332Z" fill="#B7B8E7"/>
</svg>
