<svg width="10" height="10" viewBox="0 0 10 10"  xmlns="http://www.w3.org/2000/svg">
<path d="M7.84668 5.69336C7.93782 5.87891 8.00618 6.07097 8.05176 6.26953C8.10058 6.4681 8.125 6.66992 8.125 6.875C8.125 7.16146 8.08757 7.43815 8.01269 7.70507C7.93782 7.97201 7.83203 8.22102 7.69532 8.45217C7.56185 8.68325 7.39909 8.89483 7.20703 9.08692C7.01823 9.27575 6.80827 9.4385 6.57715 9.57517C6.34602 9.70867 6.09701 9.81283 5.83007 9.88767C5.56315 9.96258 5.28646 10 5 10C4.71354 10 4.43685 9.96258 4.16992 9.88767C3.90299 9.81283 3.65397 9.70867 3.42285 9.57517C3.19173 9.4385 2.98014 9.27575 2.78808 9.08692C2.59928 8.89483 2.43653 8.68325 2.29981 8.45217C2.16634 8.22102 2.06217 7.97201 1.9873 7.70507C1.91243 7.43815 1.875 7.16146 1.875 6.875C1.875 6.66992 1.89779 6.4681 1.94336 6.26953C1.99219 6.07097 2.06217 5.87891 2.15332 5.69336L5 0L7.84668 5.69336Z" fill="#fff"/>


</svg>
