<svg width="32" height="32" fill="none" xmlns="http://www.w3.org/2000/svg">
    <path d="M8.027 2a.84.84 0 0 0-.698.329S6.271 3.723 5.21 5.39c-.532.833-1.065 1.736-1.478 2.591C3.318 8.837 3 9.61 3 10.396 3 12.961 5.279 15 8 15c2.722 0 5-2.04 5-4.604 0-.786-.318-1.559-.73-2.414-.414-.855-.947-1.758-1.479-2.591-1.062-1.668-2.12-3.062-2.12-3.062A.84.84 0 0 0 8.026 2ZM8 4.264c.377.516.689.907 1.375 1.983.51.801 1.018 1.664 1.386 2.427.369.764.572 1.461.572 1.722 0 1.624-1.452 2.98-3.333 2.98-1.881 0-3.334-1.356-3.334-2.98 0-.26.203-.958.572-1.722.368-.763.876-1.626 1.386-2.427C7.31 5.171 7.622 4.78 8 4.264ZM23.027 2a.84.84 0 0 0-.698.329s-1.058 1.394-2.12 3.062c-.532.833-1.065 1.736-1.478 2.591-.413.855-.731 1.628-.731 2.414C18 12.961 20.279 15 23 15s5-2.04 5-4.604c0-.786-.318-1.559-.73-2.414-.414-.855-.947-1.758-1.479-2.591-1.062-1.668-2.12-3.062-2.12-3.062A.84.84 0 0 0 23.027 2ZM23 4.264c.377.516.69.907 1.375 1.983.51.801 1.018 1.664 1.387 2.427.368.764.571 1.461.571 1.722 0 1.624-1.452 2.98-3.333 2.98-1.881 0-3.333-1.356-3.333-2.98 0-.26.203-.958.571-1.722.369-.763.876-1.626 1.387-2.427.686-1.076.998-1.467 1.375-1.983ZM15.027 16a.84.84 0 0 0-.698.329s-1.058 1.394-2.12 3.061c-.532.834-1.066 1.737-1.478 2.592-.413.855-.731 1.628-.731 2.414C10 26.961 12.278 29 15 29c2.721 0 5-2.04 5-4.604 0-.786-.318-1.559-.73-2.414-.413-.855-.947-1.758-1.479-2.591-1.062-1.668-2.12-3.062-2.12-3.062a.84.84 0 0 0-.643-.329ZM15 18.264c.377.516.689.907 1.375 1.983.51.801 1.018 1.664 1.387 2.427.368.764.57 1.461.57 1.722 0 1.624-1.451 2.98-3.332 2.98-1.881 0-3.334-1.356-3.334-2.98 0-.26.203-.958.572-1.722.368-.763.876-1.626 1.386-2.427.686-1.076.998-1.467 1.376-1.983Z"
          fill="#9392c7"/>
</svg>