<svg width="14" height="28" viewBox="0 0 14 28" fill="none" xmlns="http://www.w3.org/2000/svg">
<path d="M12.2502 10.4982H8.75112V1.74726C8.75112 0.900023 8.14571 0.175683 7.31309 0.0251354C6.4874 -0.114839 5.65801 0.340196 5.36057 1.13107L0.111826 15.1321C-0.0908977 15.6675 -0.0142437 16.2731 0.311323 16.7458C0.643817 17.2188 1.17903 17.4988 1.75302 17.4988H5.2521V26.2497C5.2521 27.0969 5.85752 27.8213 6.69013 27.9718C6.79496 27.9894 6.90025 28 7.00184 28C7.71902 28 8.38029 27.5556 8.63943 26.8659L13.8882 12.8649C14.0909 12.3295 14.0142 11.7238 13.6887 11.2512C13.3594 10.7781 12.8242 10.4982 12.2502 10.4982L12.2502 10.4982Z" fill="url(#paint0_linear_3758_7587)"/>
<defs>
<linearGradient id="paint0_linear_3758_7587" x1="7" y1="0" x2="7" y2="28" gradientUnits="userSpaceOnUse">
<stop stop-color="#FBD745"/>
<stop offset="1" stop-color="#FFA148"/>
</linearGradient>
</defs>
</svg>
