<svg viewBox="0 0 256 256" fill="none" xmlns="http://www.w3.org/2000/svg">
<path fill-rule="evenodd" clip-rule="evenodd" d="M94.8087 234L94.5234 234.912C95.792 235.309 97.0702 235.684 98.3577 236.036L98.8857 234.107C98.7562 234.072 98.6267 234.036 98.4974 234H94.8087ZM152 20.6261C152.438 20.7235 152.874 20.8235 153.31 20.9261L153.769 18.9794C153.181 18.841 152.591 18.7072 152 18.5781V20.6261ZM102.69 235.075L102.232 237.022C103.527 237.327 104.83 237.609 106.142 237.869L106.53 235.907C105.242 235.652 103.962 235.375 102.69 235.075ZM110.395 236.6L110.078 238.574C111.389 238.785 112.707 238.973 114.033 239.138L114.28 237.154C112.978 236.992 111.683 236.807 110.395 236.6ZM118.186 237.569L118.01 239.561C119.335 239.678 120.666 239.772 122.003 239.843L122.109 237.846C120.795 237.776 119.487 237.684 118.186 237.569ZM126.029 237.983L125.994 239.983C126.661 239.995 127.33 240.001 128 240.001C128.671 240.001 129.339 239.995 130.007 239.983L129.972 237.983C129.316 237.995 128.659 238.001 128 238.001C127.342 238.001 126.684 237.995 126.029 237.983ZM133.892 237.846L133.997 239.843C135.334 239.772 136.666 239.678 137.99 239.561L137.814 237.569C136.513 237.684 135.205 237.776 133.892 237.846ZM141.72 237.154L141.967 239.138C143.293 238.973 144.612 238.785 145.923 238.574L145.605 236.6C144.318 236.807 143.023 236.992 141.72 237.154ZM149.47 235.907L149.858 237.869C151.17 237.609 152.474 237.327 153.769 237.022L153.31 235.075C152.039 235.375 150.759 235.652 149.47 235.907ZM157.115 234.107L157.643 236.036C158.93 235.684 160.209 235.309 161.477 234.912L160.88 233.003C159.634 233.393 158.379 233.761 157.115 234.107ZM164.608 231.763L165.273 233.649C166.533 233.205 167.782 232.738 169.02 232.251L168.287 230.39C167.071 230.869 165.845 231.327 164.608 231.763ZM171.914 228.886L172.713 230.72C173.936 230.186 175.148 229.632 176.348 229.057L175.483 227.253C174.305 227.818 173.115 228.363 171.914 228.886ZM178.995 225.492L179.923 227.263C181.105 226.644 182.275 226.004 183.431 225.344L182.44 223.607C181.304 224.255 180.156 224.884 178.995 225.492ZM185.815 221.6L186.868 223.301C188.002 222.599 189.122 221.877 190.229 221.136L189.117 219.474C188.03 220.202 186.929 220.911 185.815 221.6ZM192.341 217.231L193.512 218.852C194.593 218.071 195.66 217.272 196.711 216.454L195.483 214.875C194.451 215.679 193.403 216.464 192.341 217.231ZM198.54 212.409L199.823 213.943C200.846 213.088 201.853 212.214 202.844 211.323L201.507 209.836C200.533 210.711 199.544 211.569 198.54 212.409ZM204.381 207.159L205.77 208.598C206.729 207.672 207.672 206.73 208.597 205.77L207.158 204.382C206.249 205.324 205.323 206.25 204.381 207.159ZM209.835 201.507L211.323 202.844C212.214 201.853 213.087 200.846 213.943 199.824L212.409 198.54C211.568 199.545 210.71 200.534 209.835 201.507ZM214.875 195.484L216.453 196.712C217.271 195.66 218.071 194.594 218.852 193.513L217.231 192.342C216.464 193.403 215.678 194.451 214.875 195.484ZM219.474 189.117L221.136 190.23C221.877 189.123 222.598 188.002 223.3 186.868L221.6 185.815C220.91 186.929 220.201 188.03 219.474 189.117ZM223.606 182.44L225.344 183.432C226.004 182.275 226.643 181.106 227.263 179.924L225.492 178.995C224.883 180.156 224.255 181.305 223.606 182.44ZM227.253 175.484L229.056 176.348C229.631 175.148 230.186 173.936 230.719 172.713L228.886 171.914C228.362 173.115 227.818 174.305 227.253 175.484ZM230.389 168.288L232.25 169.021C232.738 167.782 233.204 166.533 233.648 165.274L231.762 164.608C231.326 165.845 230.868 167.072 230.389 168.288ZM233.003 160.88L234.911 161.478C235.308 160.209 235.683 158.931 236.036 157.643L234.107 157.115C233.76 158.38 233.392 159.635 233.003 160.88ZM235.075 153.311L237.022 153.769C237.326 152.474 237.609 151.171 237.868 149.859L235.906 149.471C235.652 150.759 235.374 152.039 235.075 153.311ZM236.599 145.606L238.574 145.923C238.785 144.612 238.973 143.294 239.138 141.968L237.153 141.721C236.991 143.023 236.806 144.318 236.599 145.606ZM237.569 137.815L239.561 137.991C239.678 136.666 239.772 135.335 239.842 133.998L237.845 133.892C237.776 135.206 237.684 136.514 237.569 137.815ZM240 128.001C240 128.671 239.994 129.34 239.983 130.007L237.983 129.972C237.994 129.317 238 128.659 238 128.001C238 127.342 237.994 126.685 237.983 126.029L239.983 125.994C239.994 126.661 240 127.33 240 128.001ZM237.845 122.109L239.842 122.004C239.772 120.666 239.678 119.335 239.561 118.011L237.569 118.187C237.684 119.488 237.776 120.795 237.845 122.109ZM237.153 114.28L239.138 114.034C238.973 112.708 238.785 111.389 238.574 110.078L236.599 110.396C236.806 111.683 236.991 112.978 237.153 114.28ZM235.906 106.531L237.868 106.143C237.609 104.831 237.326 103.527 237.022 102.232L235.075 102.691C235.374 103.962 235.652 105.242 235.906 106.531ZM234.107 98.8862L236.036 98.3581C235.683 97.0706 235.308 95.7924 234.911 94.5239L233.003 95.121C233.392 96.3667 233.76 97.6219 234.107 98.8862ZM231.762 91.393L233.648 90.7276C233.204 89.4682 232.738 88.2191 232.25 86.9808L230.389 87.7136C230.868 88.9296 231.326 90.1562 231.762 91.393ZM228.886 84.0874L230.719 83.2882C230.186 82.065 229.631 80.8531 229.056 79.6531L227.253 80.5175C227.818 81.696 228.362 82.8861 228.886 84.0874ZM225.492 77.006L227.263 76.0775C226.643 74.8956 226.003 73.7262 225.343 72.5696L223.606 73.5609C224.255 74.6968 224.883 75.8453 225.492 77.006ZM221.6 70.1861L223.3 69.1334C222.598 67.9992 221.876 66.8785 221.136 65.7718L219.474 66.8844C220.201 67.9714 220.91 69.0721 221.6 70.1861ZM217.231 63.6598L218.852 62.4887C218.071 61.4077 217.271 60.3411 216.453 59.2896L214.875 60.5176C215.678 61.5504 216.464 62.598 217.231 63.6598ZM212.409 57.4612L213.943 56.1779C213.087 55.1553 212.214 54.1481 211.323 53.157L209.835 54.494C210.71 55.4675 211.568 56.4567 212.409 57.4612ZM207.158 51.6199L208.597 50.231C207.672 49.2719 206.729 48.3293 205.77 47.4036L204.381 48.8427C205.323 49.7519 206.249 50.6778 207.158 51.6199ZM201.507 46.1657L202.844 44.6782C201.853 43.7874 200.846 42.9139 199.823 42.0584L198.54 43.5923C199.544 44.4327 200.533 45.2906 201.507 46.1657ZM195.483 41.1263L196.711 39.5477C195.66 38.7297 194.593 37.93 193.512 37.1491L192.341 38.7703C193.403 39.5373 194.45 40.3228 195.483 41.1263ZM189.117 36.5273L190.229 34.8654C189.122 34.1245 188.002 33.4027 186.868 32.7006L185.815 34.4012C186.929 35.0907 188.029 35.7996 189.117 36.5273ZM179.923 28.738C181.105 29.3575 182.275 29.9974 183.431 30.6574L182.44 32.3945C181.304 31.7463 180.156 31.1178 178.995 30.5094L179.923 28.738ZM175.483 28.7483L176.348 26.9447C175.148 26.3695 173.936 25.8151 172.713 25.2819L171.914 27.1153C173.115 27.639 174.305 28.1834 175.483 28.7483ZM168.287 25.6116L169.02 23.7507C167.782 23.263 166.533 22.7968 165.273 22.3525L164.608 24.2385C165.845 24.6749 167.071 25.1327 168.287 25.6116ZM160.88 22.9983L161.477 21.0895C160.208 20.6927 158.93 20.3179 157.643 19.9654L157.115 21.8944C158.379 22.2405 159.634 22.6086 160.88 22.9983Z" fill="#D0D0D0"/>
<path fill-rule="evenodd" clip-rule="evenodd" d="M104 18.5781C53.6771 29.5648 16 74.3828 16 128.001C16 181.619 53.6771 226.437 104 237.423V235.375C54.7905 224.424 18 180.509 18 128.001C18 75.4926 54.7905 31.5773 104 20.6266V18.5781Z" fill="#B0B0EA"/>
<path fill-rule="evenodd" clip-rule="evenodd" d="M128 34C136.837 34 144 26.8366 144 18C144 9.16344 136.837 2 128 2C119.163 2 112 9.16344 112 18C112 26.8366 119.163 34 128 34ZM120.074 11.6735C121.42 9.9085 123.309 8.6195 125.461 8L125.461 8.00003C124.969 9.20398 124.715 10.4889 124.713 11.7863C124.713 14.4938 125.806 17.0904 127.751 19.0048C129.697 20.9195 132.335 21.9948 135.087 21.9948C136.073 21.9929 137.054 21.8529 138 21.5787C137.231 23.4726 135.903 25.0966 134.187 26.2412C132.472 27.3858 130.447 27.9984 128.374 28C125.623 28 122.984 26.9244 121.039 25.01C119.093 23.0956 118 20.4987 118 17.7912C118.002 15.5849 118.729 13.4385 120.074 11.6735Z" fill="#B0B0EA"/>
</svg>
