<svg width="32" height="32" fill="none" xmlns="http://www.w3.org/2000/svg">
    <path d="M16 4.008c-7.694 0-13.945 6.27-13.945 13.988S8.306 31.984 16 31.984s13.946-6.27 13.946-13.988S23.694 4.008 16 4.008Zm0 1.332c6.977 0 12.618 5.659 12.618 12.656 0 6.998-5.641 12.657-12.618 12.657-6.976 0-12.617-5.659-12.617-12.657C3.383 11 9.023 5.34 16 5.34Z"
          fill="#9392c7"/>
    <path d="M16.005.016c-.76 0-1.52.255-2.136.771h-.002a3.332 3.332 0 0 0-.746 4.21.665.665 0 1 0 1.15-.667 1.98 1.98 0 0 1 .447-2.519 1.99 1.99 0 0 1 2.567.007 1.98 1.98 0 0 1 .44 2.52.667.667 0 0 0 .743.987.664.664 0 0 0 .404-.317 3.331 3.331 0 0 0-.734-4.212 3.315 3.315 0 0 0-2.133-.779V.016ZM16.003 8.004c-2.297 0-4.594.776-6.464 2.329-3.746 3.113-4.542 8.474-2.115 12.66.12.206.338.332.575.331h16a.663.663 0 0 0 .574-.33c2.43-4.185 1.632-9.539-2.11-12.655a10.086 10.086 0 0 0-6.46-2.335ZM16 9.335c1.995 0 3.99.678 5.614 2.03 3.146 2.62 3.836 7.03 1.934 10.628h-15.1c-1.9-3.6-1.21-8.018 1.937-10.634a8.76 8.76 0 0 1 5.615-2.023Z"
          fill="#9392c7"/>
    <path d="M16.001 14.668a2.006 2.006 0 0 0-1.992 1.998c0 1.096.9 1.999 1.992 1.999a2.005 2.005 0 0 0 1.992-1.999c0-1.095-.9-1.998-1.992-1.998Zm0 1.332c.375 0 .664.29.664.666 0 .376-.29.666-.664.666a.655.655 0 0 1-.664-.666c0-.375.29-.666.664-.666Z"
          fill="#9392c7"/>
    <path fill-rule="evenodd" clip-rule="evenodd"
          d="M19.965 12.004a.663.663 0 0 0-.457.202l-2.644 2.65a.667.667 0 0 0 .468 1.146.661.661 0 0 0 .472-.204l2.643-2.65a.668.668 0 0 0-.482-1.144ZM14.653 17.332a.663.663 0 0 0-.457.202l-1.315 1.318a.667.667 0 0 0 .467 1.146.663.663 0 0 0 .472-.204l1.315-1.318a.668.668 0 0 0-.482-1.144Z"
          fill="#9392c7"/>
    <path fill-rule="evenodd" clip-rule="evenodd"
          d="M18.002 12.004a.663.663 0 0 0-.673.666.668.668 0 0 0 .673.666h1.319v1.324a.667.667 0 0 0 .664.675.664.664 0 0 0 .664-.675v-1.99a.665.665 0 0 0-.664-.666h-1.983ZM4.055 21.996a.663.663 0 0 0-.673.666.668.668 0 0 0 .673.666h23.89a.662.662 0 0 0 .672-.666.668.668 0 0 0-.673-.666H4.055Z"
          fill="#9392c7"/>
</svg>