<svg width="24" height="24" viewBox="0 0 24 24" fill="none" xmlns="http://www.w3.org/2000/svg">
<path opacity="0.5" d="M4 17.2514C4 17.0308 4.07445 16.8574 4.22336 16.7314C4.33256 16.6 4.49884 16.5344 4.7222 16.5344H19.2852C19.4838 16.5344 19.6526 16.6027 19.7915 16.7393C19.9305 16.8758 20 17.0466 20 17.2514C20 17.451 19.928 17.627 19.7841 17.7794C19.6451 17.9265 19.4788 18 19.2852 18H4.7222C4.52365 18 4.35241 17.9265 4.20847 17.7794C4.06949 17.627 4 17.451 4 17.2514ZM5.74965 10.8059C5.62556 10.6798 5.56352 10.5064 5.56352 10.2858C5.56352 10.0652 5.62556 9.88921 5.74965 9.75788C5.88367 9.61079 6.05491 9.53725 6.26338 9.53725C6.44703 9.53725 6.60586 9.61079 6.73988 9.75788L7.93113 11.0186C8.07507 11.171 8.14705 11.3469 8.14705 11.5466C8.14705 11.7409 8.07507 11.9143 7.93113 12.0666C7.81201 12.219 7.65069 12.2951 7.44718 12.2951C7.24864 12.2899 7.07988 12.2137 6.9409 12.0666L5.74965 10.8059ZM7.8939 14.9821C7.85916 15.1134 7.89887 15.1791 8.01303 15.1791H9.19684C9.25143 15.1791 9.311 15.1318 9.37552 15.0372C9.61377 14.5014 9.96619 14.0759 10.4328 13.7607C10.8993 13.4456 11.418 13.288 11.9888 13.288C12.5646 13.288 13.0907 13.4456 13.5672 13.7607C14.0437 14.0759 14.4011 14.5014 14.6394 15.0372C14.7039 15.1318 14.7635 15.1791 14.8181 15.1791H15.9944C16.0937 15.1791 16.1334 15.1134 16.1135 14.9821C15.8455 14.0313 15.3293 13.2591 14.5649 12.6655C13.8055 12.0719 12.9468 11.7751 11.9888 11.7751C11.0358 11.7751 10.1821 12.0719 9.42764 12.6655C8.67318 13.2591 8.16194 14.0313 7.8939 14.9821ZM11.3113 9.55301V7.75645C11.3113 7.54632 11.3758 7.36772 11.5049 7.22063C11.6339 7.07354 11.7953 7 11.9888 7C12.1874 7 12.3537 7.07354 12.4877 7.22063C12.6217 7.36246 12.6887 7.54107 12.6887 7.75645V9.55301C12.6887 9.76839 12.6217 9.94699 12.4877 10.0888C12.3537 10.2307 12.1874 10.3016 11.9888 10.3016C11.7953 10.3016 11.6339 10.2307 11.5049 10.0888C11.3758 9.94174 11.3113 9.76313 11.3113 9.55301ZM15.853 11.5466C15.853 11.3469 15.92 11.171 16.054 11.0186L17.275 9.75788C17.3991 9.61079 17.5629 9.53725 17.7664 9.53725C17.96 9.53725 18.1188 9.60817 18.2429 9.75C18.367 9.89183 18.429 10.0704 18.429 10.2858C18.429 10.5064 18.367 10.6798 18.2429 10.8059L17.0665 12.0666C16.9325 12.2085 16.7836 12.2872 16.6198 12.303C16.4411 12.324 16.2674 12.2557 16.0986 12.0981C15.9349 11.9405 15.853 11.7567 15.853 11.5466Z" fill="#FFFFFF"/>
</svg>
