<svg fill="none" xmlns="http://www.w3.org/2000/svg" viewBox="0 0 256 256">
  <path fill-rule="evenodd" clip-rule="evenodd" d="M129.233 8.92373V5.23094c0-.43992-.235-.84639-.616-1.06597a1.2307 1.2307 0 0 0-1.231 0c-.381.21963-.615.62608-.615 1.06597v3.69279c0 .4396.234.84606.615 1.06598.381.21959.85.21959 1.231 0 .381-.21996.616-.62641.616-1.06598Zm7.38 11.08037c0 4.7589-3.858 8.617-8.617 8.617s-8.616-3.8579-8.616-8.617c0-4.759 3.858-8.616 8.616-8.616 4.758 0 8.617 3.8575 8.617 8.616Zm-7.38 11.0759v3.6928c0 .4399-.235.846-.616 1.066-.381.2199-.85.2199-1.231 0-.381-.2199-.615-.6261-.615-1.066V31.08c0-.4395.234-.846.615-1.0659.381-.22.85-.22 1.231 0 .381.2199.616.6263.616 1.0659Zm13.537-12.3091h-3.693c-.439 0-.846.2346-1.066.6154-.219.3808-.219.8499 0 1.231.22.3808.627.6154 1.066.6154h3.693c.44 0 .846-.2346 1.066-.6154.22-.3811.22-.8503 0-1.231-.22-.3808-.626-.6154-1.066-.6154Zm-25.846 2.4618h-3.693c-.44 0-.846-.2346-1.066-.6154-.22-.3811-.22-.8502 0-1.231.22-.3808.626-.6154 1.066-.6154h3.693c.439 0 .846.2346 1.066.6154.219.3807.219.8499 0 1.231-.22.3808-.627.6154-1.066.6154Zm1.503-12.5408c-.312-.30183-.761-.41652-1.181-.30183-.419.11501-.746.44251-.861.86161-.115.41945 0 .86822.302 1.18062l2.611 2.611c.312.3018.761.4165 1.18.3018.419-.115.747-.4425.862-.8616.114-.4194 0-.8682-.302-1.1807l-2.611-2.6109Zm18.274 18.2734 2.611 2.6109c.301.3129.416.7616.301 1.1807-.115.4194-.442.7469-.861.8616-.42.115-.868.0003-1.181-.3015l-2.611-2.6109c-.302-.3125-.416-.7616-.301-1.1807.115-.4191.442-.7466.861-.8616.419-.115.868-.0003 1.181.3018v-.0003Zm2.618-18.27944a1.23215 1.23215 0 0 0-.871-.36032c-.326 0-.639.12964-.87.36032l-2.611 2.61094c-.237.2294-.373.5445-.376.8747-.003.3301.127.6475.361.8811.233.2336.551.3633.881.3603.33-.0026.645-.1381.875-.3756l2.611-2.6109c.23-.2307.36-.54388.36-.87009 0-.32652-.13-.6394-.36-.87042v-.00003ZM117.556 31.6773c-.326 0-.639-.1296-.87-.3603v.0001c-.231-.231-.36-.5439-.36-.8704 0-.3266.129-.6395.36-.8705l2.611-2.6106c.312-.3021.761-.4168 1.18-.3018.419.115.747.4425.862.8616.115.4191 0 .8681-.302 1.1807l-2.611 2.6109c-.23.2307-.544.3603-.87.3603ZM104 18.5781C53.6771 29.5648 16 74.3828 16 128.001c0 53.618 37.6771 98.436 88 109.422v-2.048c-49.2095-10.951-86-54.866-86-107.374 0-52.5084 36.7905-96.4237 86-107.3744v-2.0485Z" fill="#FEC225"/>
  <path fill-rule="evenodd" clip-rule="evenodd" d="m94.8087 234-.2853.912c1.2686.397 2.5468.772 3.8343 1.124l.528-1.929c-.1295-.035-.259-.071-.3883-.107h-3.6887ZM152 20.6261c.438.0974.874.1974 1.31.3l.459-1.9467c-.588-.1384-1.178-.2722-1.769-.4013v2.048ZM102.69 235.075l-.458 1.947c1.295.305 2.598.587 3.91.847l.388-1.962c-1.288-.255-2.568-.532-3.84-.832Zm7.705 1.525-.317 1.974c1.311.211 2.629.399 3.955.564l.247-1.984c-1.302-.162-2.597-.347-3.885-.554Zm7.791.969-.176 1.992c1.325.117 2.656.211 3.993.282l.106-1.997c-1.314-.07-2.622-.162-3.923-.277Zm7.843.414-.035 2c.667.012 1.336.018 2.006.018.671 0 1.339-.006 2.007-.018l-.035-2c-.656.012-1.313.018-1.972.018-.658 0-1.316-.006-1.971-.018Zm7.863-.137.105 1.997c1.337-.071 2.669-.165 3.993-.282l-.176-1.992c-1.301.115-2.609.207-3.922.277Zm7.828-.692.247 1.984c1.326-.165 2.645-.353 3.956-.564l-.318-1.974c-1.287.207-2.582.392-3.885.554Zm7.75-1.247.388 1.962c1.312-.26 2.616-.542 3.911-.847l-.459-1.947c-1.271.3-2.551.577-3.84.832Zm7.645-1.8.528 1.929c1.287-.352 2.566-.727 3.834-1.124l-.597-1.909c-1.246.39-2.501.758-3.765 1.104Zm7.493-2.344.665 1.886c1.26-.444 2.509-.911 3.747-1.398l-.733-1.861c-1.216.479-2.442.937-3.679 1.373Zm7.306-2.877.799 1.834c1.223-.534 2.435-1.088 3.635-1.663l-.865-1.804c-1.178.565-2.368 1.11-3.569 1.633Zm7.081-3.394.928 1.771c1.182-.619 2.352-1.259 3.508-1.919l-.991-1.737c-1.136.648-2.284 1.277-3.445 1.885Zm6.82-3.892 1.053 1.701c1.134-.702 2.254-1.424 3.361-2.165l-1.112-1.662c-1.087.728-2.188 1.437-3.302 2.126Zm6.526-4.369 1.171 1.621c1.081-.781 2.148-1.58 3.199-2.398l-1.228-1.579c-1.032.804-2.08 1.589-3.142 2.356Zm6.199-4.822 1.283 1.534c1.023-.855 2.03-1.729 3.021-2.62l-1.337-1.487c-.974.875-1.963 1.733-2.967 2.573Zm5.841-5.25 1.389 1.439c.959-.926 1.902-1.868 2.827-2.828l-1.439-1.388c-.909.942-1.835 1.868-2.777 2.777Zm5.454-5.652 1.488 1.337c.891-.991 1.764-1.998 2.62-3.02l-1.534-1.284c-.841 1.005-1.699 1.994-2.574 2.967Zm5.04-6.023 1.578 1.228c.818-1.052 1.618-2.118 2.399-3.199l-1.621-1.171c-.767 1.061-1.553 2.109-2.356 3.142Zm4.599-6.367 1.662 1.113c.741-1.107 1.462-2.228 2.164-3.362l-1.7-1.053c-.69 1.114-1.399 2.215-2.126 3.302Zm4.132-6.677 1.738.992c.66-1.157 1.299-2.326 1.919-3.508l-1.771-.929c-.609 1.161-1.237 2.31-1.886 3.445Zm3.647-6.956 1.803.864c.575-1.2 1.13-2.412 1.663-3.635l-1.833-.799c-.524 1.201-1.068 2.391-1.633 3.57Zm3.136-7.196 1.861.733c.488-1.239.954-2.488 1.398-3.747l-1.886-.666c-.436 1.237-.894 2.464-1.373 3.68Zm2.614-7.408 1.908.598c.397-1.269.772-2.547 1.125-3.835l-1.929-.528c-.347 1.265-.715 2.52-1.104 3.765Zm2.072-7.569 1.947.458c.304-1.295.587-2.598.846-3.91l-1.962-.388c-.254 1.288-.532 2.568-.831 3.84Zm1.524-7.705 1.975.317c.211-1.311.399-2.629.564-3.955l-1.985-.247c-.162 1.302-.347 2.597-.554 3.885Zm.97-7.791 1.992.176c.117-1.325.211-2.656.281-3.993l-1.997-.106c-.069 1.314-.161 2.622-.276 3.923Zm2.431-9.814c0 .67-.006 1.339-.017 2.006l-2-.035c.011-.655.017-1.313.017-1.971 0-.659-.006-1.316-.017-1.972l2-.035c.011.667.017 1.336.017 2.007Zm-2.155-5.892 1.997-.105c-.07-1.338-.164-2.669-.281-3.993l-1.992.176c.115 1.301.207 2.608.276 3.922Zm-.692-7.829 1.985-.246c-.165-1.326-.353-2.645-.564-3.956l-1.975.318c.207 1.287.392 2.582.554 3.884Zm-1.247-7.749 1.962-.388c-.259-1.312-.542-2.616-.846-3.911l-1.947.459c.299 1.271.577 2.551.831 3.84Zm-1.799-7.6448 1.929-.5281a111.8923 111.8923 0 0 0-1.125-3.8342l-1.908.5971c.389 1.2457.757 2.5009 1.104 3.7652Zm-2.345-7.4932 1.886-.6654c-.444-1.2594-.91-2.5085-1.398-3.7468l-1.861.7328c.479 1.216.937 2.4426 1.373 3.6794Zm-2.876-7.3056 1.833-.7992c-.533-1.2232-1.088-2.4351-1.663-3.6351l-1.803.8644c.565 1.1785 1.109 2.3686 1.633 3.5699Zm-3.394-7.0814 1.771-.9285c-.62-1.1819-1.26-2.3513-1.92-3.5079l-1.737.9913c.649 1.1359 1.277 2.2844 1.886 3.4451Zm-3.892-6.8199 1.7-1.0527c-.702-1.1342-1.424-2.2549-2.164-3.3616l-1.662 1.1126c.727 1.087 1.436 2.1877 2.126 3.3017Zm-4.369-6.5263 1.621-1.1711c-.781-1.081-1.581-2.1476-2.399-3.1991l-1.578 1.228c.803 1.0328 1.589 2.0804 2.356 3.1422Zm-4.822-6.1986 1.534-1.2833c-.856-1.0226-1.729-2.0298-2.62-3.0209l-1.488 1.337c.875.9735 1.733 1.9627 2.574 2.9672Zm-5.251-5.8413 1.439-1.3889c-.925-.9591-1.868-1.9017-2.827-2.8274l-1.389 1.4391c.942.9092 1.868 1.8351 2.777 2.7772Zm-5.651-5.4542 1.337-1.4875c-.991-.8908-1.998-1.7643-3.021-2.6198l-1.283 1.5339c1.004.8404 1.993 1.6983 2.967 2.5734Zm-6.024-5.0394 1.228-1.5786c-1.051-.818-2.118-1.6177-3.199-2.3986l-1.171 1.6212c1.062.767 2.109 1.5525 3.142 2.356Zm-6.366-4.599 1.112-1.6619c-1.107-.7409-2.227-1.4627-3.361-2.1648l-1.053 1.7006c1.114.6895 2.214 1.3984 3.302 2.1261Zm-9.194-7.7893c1.182.6195 2.352 1.2594 3.508 1.9194l-.991 1.7371c-1.136-.6482-2.284-1.2767-3.445-1.8851l.928-1.7714Zm-4.44.0103.865-1.8036c-1.2-.5752-2.412-1.1296-3.635-1.6628l-.799 1.8334c1.201.5237 2.391 1.0681 3.569 1.633Zm-7.196-3.1367.733-1.8609c-1.238-.4877-2.487-.9539-3.747-1.3982l-.665 1.886c1.237.4364 2.463.8942 3.679 1.3731Zm-7.407-2.6133.597-1.9088c-1.269-.3968-2.547-.7716-3.834-1.1241l-.528 1.929c1.264.3461 2.519.7142 3.765 1.1039Z" fill="#D0D0D0"/>
</svg>
