<svg width="24" height="24" viewBox="0 0 24 24" fill="none" xmlns="http://www.w3.org/2000/svg">
<path opacity="0.5" d="M3 13.0508C3 12.8453 3.07427 12.6772 3.22282 12.5464C3.3528 12.4156 3.52224 12.3503 3.73114 12.3503H5.4441C5.64371 12.3503 5.80851 12.418 5.93849 12.5534C6.06847 12.6842 6.13346 12.85 6.13346 13.0508C6.13346 13.2609 6.06615 13.4384 5.93153 13.5832C5.80155 13.7233 5.63907 13.7933 5.4441 13.7933H3.73114C3.53153 13.7933 3.35977 13.721 3.21586 13.5762C3.07195 13.4267 3 13.2516 3 13.0508ZM5.4441 7.18039C5.4441 6.97023 5.50677 6.8021 5.63211 6.67601C5.78066 6.52656 5.95474 6.45184 6.15435 6.45184C6.36789 6.45184 6.53501 6.52656 6.65571 6.67601L7.86035 7.89492C8.20387 8.22183 8.20387 8.55809 7.86035 8.90368C7.72108 9.04378 7.56093 9.11384 7.37988 9.11384C7.21741 9.11384 7.05029 9.04378 6.87853 8.90368L5.63211 7.68476C5.50677 7.54933 5.4441 7.3812 5.4441 7.18039ZM6.90638 17.0998C6.90638 16.9037 6.98066 16.7309 7.12921 16.5814C7.26383 16.446 7.43095 16.3783 7.63056 16.3783H10.019C10.0979 16.3783 10.1675 16.397 10.2279 16.4343L11.9756 18.0946L13.7513 16.4343C13.8023 16.397 13.8743 16.3783 13.9671 16.3783H16.4182C16.6178 16.3783 16.7872 16.4483 16.9265 16.5884C17.0704 16.7285 17.1424 16.899 17.1424 17.0998C17.1424 17.3006 17.0704 17.4734 16.9265 17.6182C16.7872 17.7583 16.6178 17.8284 16.4182 17.8284H14.4267L12.094 19.951C12.0012 20.0163 11.9199 20.0163 11.8503 19.951L9.55938 17.8284H7.63056C7.43095 17.8284 7.25919 17.7583 7.11528 17.6182C6.97602 17.4734 6.90638 17.3006 6.90638 17.0998ZM7.95087 11.3415C7.71876 11.8879 7.60271 12.4577 7.60271 13.0508C7.60271 13.7933 7.74661 14.4472 8.03443 15.0123C8.07621 15.0917 8.14352 15.1313 8.23636 15.1313H9.62205C9.6824 15.1313 9.71954 15.1127 9.73346 15.0753C9.74739 15.0379 9.72882 14.9936 9.67776 14.9422C9.23675 14.3865 9.01625 13.756 9.01625 13.0508C9.01625 12.2288 9.3087 11.5306 9.89362 10.9562C10.4785 10.3771 11.1841 10.0876 12.0104 10.0876C12.8275 10.0876 13.5261 10.3771 14.1064 10.9562C14.6913 11.5353 14.9838 12.2335 14.9838 13.0508C14.9838 13.756 14.7632 14.3865 14.3222 14.9422C14.2712 14.9936 14.2526 15.0379 14.2665 15.0753C14.2805 15.1127 14.3176 15.1313 14.3779 15.1313H15.7776C15.875 15.1313 15.9354 15.0917 15.9586 15.0123C16.265 14.4285 16.4182 13.7747 16.4182 13.0508C16.4182 12.4577 16.2998 11.8879 16.0631 11.3415C15.8309 10.7904 15.5176 10.3164 15.123 9.91944C14.7284 9.52248 14.2596 9.20724 13.7164 8.97373C13.1733 8.73555 12.6046 8.61646 12.0104 8.61646C11.4162 8.61646 10.8476 8.73555 10.3044 8.97373C9.76132 9.20724 9.29246 9.52248 8.89787 9.91944C8.50329 10.3164 8.18762 10.7904 7.95087 11.3415ZM11.2863 6.46585V4.72855C11.2863 4.52773 11.3559 4.35727 11.4952 4.21716C11.6391 4.07239 11.8108 4 12.0104 4C12.2101 4 12.3795 4.07239 12.5188 4.21716C12.6627 4.35727 12.7346 4.52773 12.7346 4.72855V6.46585C12.7346 6.66667 12.6627 6.83946 12.5188 6.98424C12.3795 7.12434 12.2101 7.1944 12.0104 7.1944C11.8108 7.1944 11.6391 7.12434 11.4952 6.98424C11.3559 6.83946 11.2863 6.66667 11.2863 6.46585ZM15.9447 8.3993C15.9447 8.18914 16.0097 8.02102 16.1397 7.89492L17.3513 6.67601C17.472 6.52656 17.6391 6.45184 17.8526 6.45184C18.0569 6.45184 18.2263 6.52423 18.3609 6.669C18.4956 6.80911 18.5629 6.97957 18.5629 7.18039C18.5629 7.39054 18.5002 7.55867 18.3749 7.68476L17.1424 8.90368C16.9706 9.04378 16.7988 9.11384 16.6271 9.11384C16.4321 9.11384 16.2696 9.04612 16.1397 8.91068C16.0097 8.77058 15.9447 8.60012 15.9447 8.3993ZM17.8665 13.0508C17.8665 12.85 17.9315 12.6842 18.0615 12.5534C18.1915 12.418 18.3563 12.3503 18.5559 12.3503H20.2758C20.4754 12.3503 20.6449 12.418 20.7841 12.5534C20.928 12.6888 21 12.8546 21 13.0508C21 13.2516 20.928 13.4267 20.7841 13.5762C20.6449 13.721 20.4754 13.7933 20.2758 13.7933H18.5559C18.3609 13.7933 18.1961 13.7233 18.0615 13.5832C17.9315 13.4384 17.8665 13.2609 17.8665 13.0508Z" fill="#ffffff"/>
</svg>
