<svg width="33" height="32" fill="none" xmlns="http://www.w3.org/2000/svg">
    <g clip-path="url(#a)" fill="#9392c7">
        <path d="M6.043 13.721c-3.104 0-5.744 2.262-5.968 5.245a.767.767 0 0 0 .173.559.742.742 0 0 0 1.061.082.763.763 0 0 0 .255-.526c.16-2.133 2.083-3.841 4.48-3.842 2.398 0 4.322 1.706 4.484 3.839.013.202.105.39.256.523a.739.739 0 0 0 1.058-.083.767.767 0 0 0 .175-.557c-.227-2.983-2.87-5.241-5.974-5.24Z"/>
        <path d="M16.497 13.721c-3.104 0-5.745 2.262-5.969 5.245a.769.769 0 0 0 .173.559.743.743 0 0 0 1.062.082.763.763 0 0 0 .255-.526c.16-2.133 2.083-3.841 4.48-3.842 2.398 0 4.322 1.706 4.484 3.839.013.202.106.39.256.523a.74.74 0 0 0 1.059-.083.769.769 0 0 0 .174-.557c-.227-2.983-2.87-5.241-5.974-5.24Z"/>
        <path d="M26.952 13.721c-3.104 0-5.745 2.262-5.968 5.245a.767.767 0 0 0 .173.559.738.738 0 0 0 1.061.082.763.763 0 0 0 .255-.526c.16-2.133 2.083-3.841 4.48-3.842 2.398 0 4.322 1.706 4.484 3.839.013.202.105.39.256.523a.74.74 0 0 0 1.059-.083.767.767 0 0 0 .174-.557c-.227-2.983-2.87-5.241-5.974-5.24Z"/>
        <path d="M16.493 2.338C7.828 2.346.674 9.642.075 18.974a.767.767 0 0 0 .17.57.74.74 0 0 0 1.076.072.764.764 0 0 0 .243-.542C2.117 10.47 8.652 3.86 16.494 3.856c7.84-.008 14.383 6.599 14.943 15.2v.001a.763.763 0 0 0 .243.541.739.739 0 0 0 1.075-.072.767.767 0 0 0 .171-.57C32.318 9.625 25.16 2.334 16.493 2.338Z"/>
        <path d="M16.49 14.482a.753.753 0 0 0-.736.77V28.96c.025 1.654 1.38 2.987 3.009 2.975 1.63-.012 2.965-1.367 2.965-3.02a.768.768 0 0 0-.215-.544.741.741 0 0 0-1.064 0 .767.767 0 0 0-.215.544c0 .832-.65 1.498-1.481 1.504a1.487 1.487 0 0 1-1.506-1.48V15.251a.767.767 0 0 0-.219-.548.74.74 0 0 0-.539-.221Z"/>
        <path fill-rule="evenodd" clip-rule="evenodd"
              d="M16.489.06a.742.742 0 0 0-.525.231.765.765 0 0 0-.21.54v2.255a.765.765 0 0 0 .215.544.74.74 0 0 0 1.063 0 .765.765 0 0 0 .215-.544V.831a.765.765 0 0 0-.218-.548.74.74 0 0 0-.54-.222Z"/>
    </g>
    <defs>
        <clipPath id="a">
            <path fill="#fff" d="M0 0h33v32H0z"/>
        </clipPath>
    </defs>
</svg>