<svg width="32" height="32" fill="none" xmlns="http://www.w3.org/2000/svg">
    <g clip-path="url(#a)" fill="#9392c7">
        <path d="M16 4.012C9.386 4.012 4.01 9.388 4.01 16S9.388 27.99 16 27.99 27.99 22.613 27.99 16 22.612 4.01 16 4.01Zm0 1.332a10.647 10.647 0 0 1 10.657 10.657A10.647 10.647 0 0 1 16 26.658 10.647 10.647 0 0 1 5.343 16.001 10.647 10.647 0 0 1 16 5.344Z"/>
        <path fill-rule="evenodd" clip-rule="evenodd"
              d="M21.96 11.339a.646.646 0 0 0-.079.01l-7.66 1.331a.668.668 0 0 0-.444.293l-4.33 6.66a.665.665 0 0 0 .674 1.02l7.66-1.332a.667.667 0 0 0 .444-.294l4.33-6.66a.666.666 0 0 0-.594-1.028Zm-1.356 1.583-3.338 5.135-5.87 1.021 3.34-5.135 5.868-1.021Z"/>
        <path d="M16 .014C7.18.014.015 7.179.015 15.999.015 24.82 7.18 31.986 16 31.986c8.821 0 15.986-7.165 15.986-15.986C31.986 7.18 24.821.014 16 .014Zm0 1.332c8.102 0 14.654 6.553 14.654 14.654 0 8.1-6.552 14.654-14.654 14.654C7.9 30.654 1.347 24.1 1.347 16 1.347 7.899 7.899 1.346 16 1.346Z"/>
        <path fill-rule="evenodd" clip-rule="evenodd"
              d="M14.352 12.67a.665.665 0 0 0-.577 1.026l3.319 5.31a.666.666 0 1 0 1.128-.706l-3.318-5.31a.666.666 0 0 0-.552-.32Z"/>
    </g>
    <defs>
        <clipPath id="a">
            <path fill="#fff" d="M0 0h32v32H0z"/>
        </clipPath>
    </defs>
</svg>